<?xml version="1.0" standalone="no"?>
<!DOCTYPE svg PUBLIC "-//W3C//DTD SVG 20010904//EN"
 "http://www.w3.org/TR/2001/REC-SVG-20010904/DTD/svg10.dtd">
<svg version="1.0" xmlns="http://www.w3.org/2000/svg"
 width="640.000000pt" height="549.000000pt" viewBox="0 0 640.000000 549.000000"
 preserveAspectRatio="xMidYMid meet">

<g transform="translate(0.000000,549.000000) scale(0.100000,-0.100000)"
fill="#000000" stroke="none">
<path d="M4464 5367 c40 -129 56 -263 55 -467 l-1 -155 -23 110 c-27 129 -32
123 -9 -12 23 -137 15 -334 -20 -473 -22 -87 -36 -119 -82 -188 -30 -46 -57
-82 -58 -80 -2 1 9 54 25 115 45 178 89 507 88 648 l-2 120 -8 -135 c-5 -74
-19 -200 -32 -280 l-23 -145 -8 115 c-4 63 -13 151 -20 195 -13 78 -13 75 -8
-86 6 -186 -7 -314 -43 -441 l-23 -83 -2 155 c-1 85 -6 180 -11 210 -5 30 -13
145 -19 255 -5 110 -16 237 -24 283 -17 95 -57 245 -62 239 -3 -2 3 -31 11
-64 36 -142 47 -233 50 -428 3 -149 2 -185 -5 -140 -16 99 -17 96 -12 -45 5
-154 -6 -258 -42 -380 -39 -135 -79 -216 -56 -115 17 75 32 367 23 470 -8 99
-8 99 -14 -100 -6 -195 -24 -380 -38 -404 -6 -8 -27 -10 -73 -5 l-65 6 28 70
c33 80 73 222 94 332 22 115 35 330 26 421 -8 77 -8 74 -10 -65 -2 -206 -33
-397 -95 -590 -12 -39 -14 -41 -15 -16 -1 16 6 74 15 130 12 74 15 142 12 251
-6 163 -20 224 -94 398 -53 122 -58 115 -8 -11 24 -60 53 -143 63 -184 23 -89
35 -268 22 -318 l-9 -35 -1 36 c-2 66 -31 198 -67 301 -34 98 -89 218 -99 218
-3 0 3 -17 14 -37 38 -77 90 -232 112 -333 30 -146 31 -349 2 -435 l-21 -60 6
112 c4 87 -1 159 -23 332 -16 121 -30 219 -33 216 -2 -2 4 -82 14 -177 21
-209 24 -355 7 -383 -11 -17 -12 -11 -7 36 9 75 -12 243 -42 346 -13 47 -32
140 -40 207 -22 164 -33 174 -15 12 6 -57 5 -65 -6 -50 -7 10 -13 22 -13 28 0
5 -2 7 -5 4 -3 -3 4 -25 14 -49 12 -26 26 -100 36 -184 17 -149 15 -240 -11
-417 -8 -54 -14 -100 -14 -103 0 -3 -14 -5 -31 -5 -28 0 -30 2 -25 28 42 194
30 582 -24 792 -20 79 -20 66 5 -95 22 -141 30 -436 16 -573 -14 -139 -22
-162 -55 -162 l-25 0 0 178 c1 167 -16 335 -40 417 -14 45 -13 9 3 -97 9 -61
13 -130 9 -192 l-6 -97 -38 115 c-21 64 -43 124 -49 133 -10 16 -11 16 -5 -2
68 -207 103 -406 77 -443 -5 -7 -32 -15 -60 -19 l-52 -6 0 194 c0 237 -22 600
-36 587 -1 -2 1 -114 6 -249 8 -189 7 -255 -3 -288 l-12 -43 -19 58 c-20 60
-74 184 -81 184 -2 0 9 -36 25 -80 l29 -79 -15 -128 c-20 -172 -20 -173 -48
-173 l-23 0 -6 173 c-6 176 -35 358 -86 527 -25 85 -26 63 -2 -43 45 -193 71
-383 71 -534 0 -114 -1 -122 -21 -128 -11 -4 -24 -4 -27 0 -9 9 -9 265 0 380
6 84 6 86 -4 30 -6 -33 -14 -62 -19 -65 -13 -9 -30 -168 -28 -263 2 -78 -1
-92 -15 -95 -13 -3 -16 7 -17 65 l-2 68 -8 -62 c-9 -73 -14 -83 -39 -83 -15 0
-20 10 -24 53 -3 28 -10 90 -15 137 -9 84 -9 83 -8 -55 2 -139 2 -140 -21
-143 l-23 -4 3 150 c2 83 0 145 -4 139 -4 -7 -8 -39 -9 -72 -1 -98 -15 -110
-22 -21 -10 117 -8 241 7 329 7 42 9 77 6 77 -15 0 -34 -183 -34 -320 l0 -145
-18 75 c-30 128 -41 265 -34 410 3 74 9 151 11 170 5 32 4 33 -6 10 -17 -39
-24 -323 -9 -436 6 -55 25 -150 41 -212 35 -139 36 -158 7 -166 -50 -13 -55
-9 -61 53 -4 33 -14 95 -23 138 -11 55 -15 108 -12 178 3 55 2 89 -2 75 -5
-14 -9 -38 -9 -55 -1 -16 -6 -37 -12 -45 -10 -15 -6 213 6 300 5 34 5 34 -5 6
-5 -17 -15 -74 -21 -129 l-12 -98 -28 64 c-27 65 -101 199 -106 194 -1 -2 9
-30 22 -62 33 -82 70 -229 105 -418 35 -184 37 -222 14 -231 -9 -4 -19 -4 -21
-2 -11 11 -23 88 -24 161 -2 67 -3 74 -11 45 -8 -33 -4 -115 9 -187 8 -49 -14
-41 -27 10 -38 145 -141 379 -195 442 l-26 30 26 -45 c83 -143 144 -282 175
-402 15 -58 16 -67 3 -72 -8 -3 -16 -6 -18 -6 -2 0 -6 28 -8 63 l-3 62 -2 -63
c-2 -58 -4 -63 -28 -73 -15 -5 -29 -7 -31 -5 -3 3 -9 53 -13 111 -5 59 -12
110 -16 114 -3 3 -4 -48 -2 -114 2 -75 -1 -120 -7 -121 -5 0 -22 -6 -36 -12
-60 -24 -60 -24 -121 97 -31 62 -77 168 -103 235 -25 66 -43 105 -39 86 12
-64 75 -234 125 -336 27 -55 49 -104 49 -107 0 -10 -37 -9 -43 1 -2 4 -2 2 -1
-5 2 -10 -25 -28 -31 -21 -25 30 -87 176 -105 246 -12 51 -24 91 -26 89 -4 -4
12 -96 22 -132 4 -14 3 -17 -4 -10 -17 17 -42 129 -43 196 -1 60 -2 61 -9 24
-4 -22 -4 -67 1 -99 4 -33 6 -62 4 -66 -2 -3 23 -61 56 -129 32 -67 59 -126
59 -131 0 -10 -39 -24 -46 -18 -2 3 -13 29 -23 59 -23 63 -28 44 -7 -24 l14
-46 -44 -17 c-25 -9 -48 -14 -52 -10 -3 4 -9 46 -13 94 -3 50 -7 68 -8 42 -2
-63 -14 -36 -36 80 -10 52 -22 100 -27 105 -6 6 -7 1 -4 -15 4 -14 15 -68 25
-120 11 -52 24 -108 30 -123 14 -36 14 -90 1 -82 -5 3 -10 25 -10 47 0 57 -12
40 -14 -19 -1 -41 -4 -48 -23 -51 -16 -2 -26 5 -39 30 -25 48 -53 162 -60 245
-4 40 -10 71 -14 68 -8 -5 6 -134 20 -184 5 -19 8 -36 6 -38 -1 -2 -19 21 -40
51 -20 29 -47 62 -58 72 -13 12 -8 -1 14 -31 54 -76 130 -215 125 -229 -3 -7
-26 -20 -51 -30 -36 -14 -50 -15 -61 -6 -17 14 -33 90 -44 202 l-8 83 -1 -65
c-1 -36 7 -107 17 -158 17 -90 12 -136 -8 -70 l-11 33 3 -32 c5 -49 -8 -31
-38 52 -15 42 -30 74 -32 72 -3 -3 21 -90 42 -154 2 -7 0 -15 -6 -18 -5 -4
-18 14 -29 39 -26 62 -33 58 -9 -4 l19 -51 -35 -14 c-19 -8 -36 -15 -39 -15
-7 0 -18 56 -26 134 l-7 71 -1 -60 c0 -33 3 -82 7 -108 7 -41 5 -49 -10 -57
-10 -6 -22 -10 -27 -10 -5 0 -26 43 -47 95 -41 101 -61 125 -26 29 12 -31 20
-59 17 -61 -2 -2 -12 16 -21 42 -10 25 -22 48 -26 51 -6 3 24 -86 55 -166 4
-10 -4 -22 -26 -35 -18 -10 -35 -18 -38 -17 -3 1 -8 18 -11 39 -6 36 -6 35 -8
-14 0 -30 -6 -53 -11 -53 -27 0 -68 32 -75 57 -4 15 -9 23 -12 16 -2 -7 5 -33
16 -58 l20 -46 -32 -29 c-18 -16 -35 -24 -38 -18 -3 5 -9 0 -12 -11 -5 -22
-27 -30 -27 -10 0 6 -9 22 -20 36 -23 30 -26 20 -5 -17 8 -14 14 -32 14 -40
-1 -24 -49 82 -50 110 0 14 -5 34 -10 45 -7 15 -8 10 -5 -20 5 -37 4 -38 -9
-21 -20 26 -19 11 1 -19 8 -13 22 -48 29 -77 14 -52 14 -53 -12 -80 -15 -16
-30 -28 -34 -28 -3 0 -17 36 -30 80 -12 44 -24 78 -27 76 -2 -3 6 -42 17 -87
l21 -83 -20 -21 c-18 -17 -22 -18 -30 -5 -9 13 -10 13 -10 0 -1 -23 -37 29
-44 63 -3 16 -10 26 -15 22 -6 -3 -17 8 -26 25 -8 16 -18 30 -20 30 -8 0 8
-34 48 -104 28 -49 37 -74 31 -84 -6 -8 -14 -14 -19 -14 -6 1 -34 40 -63 88
-28 48 -52 85 -52 83 0 -2 17 -50 39 -106 l39 -101 -34 -33 c-33 -32 -34 -32
-55 -13 -12 10 -29 35 -40 54 -10 19 -18 29 -19 21 0 -8 -16 3 -36 25 -45 48
-33 28 29 -49 26 -33 47 -69 47 -81 0 -13 -21 -43 -54 -75 -61 -60 -78 -59
-91 1 -5 21 -10 27 -15 18 -6 -9 -16 2 -34 36 -27 53 -35 45 -12 -11 8 -18 12
-36 9 -38 -2 -3 8 -26 23 -52 l27 -47 -26 -26 -26 -26 -38 30 c-60 48 -72 49
-21 2 43 -40 45 -44 32 -63 -14 -19 -15 -19 -40 10 l-26 30 21 -36 c20 -35 20
-36 2 -53 -18 -16 -22 -14 -82 41 -55 50 -59 53 -32 18 17 -22 43 -51 57 -64
29 -27 33 -41 12 -41 -13 0 -95 82 -129 130 -11 16 -10 10 4 -17 12 -23 41
-63 65 -89 24 -26 44 -50 44 -53 0 -3 -15 -24 -34 -45 l-33 -40 -34 23 -34 23
31 -30 31 -29 -39 -62 c-21 -33 -41 -61 -43 -61 -3 0 -24 17 -47 37 -28 26
-38 31 -30 16 7 -12 25 -32 42 -45 l30 -23 -73 -143 c-50 -99 -76 -140 -86
-137 -10 4 -11 2 -3 -7 7 -10 -5 -48 -45 -143 -54 -128 -183 -502 -182 -527 0
-7 26 64 58 157 65 187 95 267 136 365 15 36 34 79 41 96 l13 32 47 -24 c26
-13 53 -24 61 -24 8 0 13 -13 13 -36 l0 -37 -67 6 c-69 6 -51 -5 30 -18 35 -6
37 -8 37 -43 1 -20 7 -54 14 -75 8 -20 11 -39 7 -42 -4 -2 -36 -9 -72 -16 -54
-10 -73 -9 -117 4 -60 17 -68 13 -16 -9 42 -18 146 -20 189 -4 29 10 28 9 -12
-30 -42 -40 -55 -44 -133 -42 l-35 1 35 -9 c50 -13 103 4 153 48 23 20 44 40
45 45 2 4 17 14 32 22 l29 15 -6 -38 c-7 -43 -53 -147 -80 -178 -28 -33 -76
-54 -143 -61 -33 -3 -60 -10 -60 -15 0 -7 31 -5 113 7 54 9 99 38 128 84 l29
45 0 -40 c0 -86 38 -256 60 -269 5 -3 2 13 -7 37 -11 29 -17 88 -21 185 -4
126 -2 151 18 214 12 39 32 88 46 108 13 21 42 88 64 151 22 62 46 120 54 129
7 9 24 36 36 61 13 25 46 68 74 95 36 34 56 64 65 95 19 64 30 86 68 130 l33
38 78 -4 c83 -4 87 0 7 11 l-50 7 30 24 c17 13 41 24 55 25 23 0 23 1 5 9 -18
8 -18 9 5 9 18 1 21 4 12 10 -10 6 -1 19 35 49 43 37 52 41 88 36 30 -4 36 -3
25 5 -8 6 -23 11 -32 11 -10 0 -18 5 -18 10 0 6 6 10 14 10 8 0 36 16 61 36
26 19 78 55 115 79 l68 44 64 -27 63 -27 -27 -80 c-15 -45 -28 -69 -28 -55 l0
25 -15 -27 c-8 -16 -22 -40 -30 -55 -19 -35 -19 -22 0 50 21 81 53 140 71 133
9 -3 12 -1 9 4 -14 23 -34 7 -58 -47 -30 -69 -48 -131 -47 -170 0 -15 0 -59 0
-97 -1 -94 16 -169 53 -236 69 -123 231 -242 350 -256 102 -12 289 28 338 72
11 9 19 25 19 36 0 10 5 18 11 18 28 0 121 55 163 97 84 82 126 191 126 328 0
144 -55 291 -149 396 -35 39 -48 62 -45 76 3 12 -2 25 -13 34 -17 13 -17 13
-4 -4 12 -15 12 -21 0 -43 -12 -24 -45 -44 -70 -44 -5 0 -18 9 -29 20 -26 26
-26 74 0 100 11 11 16 20 11 20 -5 0 -14 -7 -21 -14 -9 -12 -17 -13 -38 -4
-44 18 -199 14 -270 -6 -44 -13 -66 -16 -74 -8 -15 15 13 26 99 41 47 8 91 24
125 45 59 35 153 71 211 81 35 6 173 73 207 100 20 16 90 24 90 10 0 -5 4 -5
8 2 7 11 122 31 122 22 0 -2 -9 -28 -20 -57 -11 -30 -16 -51 -11 -48 5 4 17
28 27 54 10 26 18 48 19 50 2 1 33 -7 71 -19 47 -15 77 -31 95 -52 22 -25 29
-28 47 -18 11 6 24 11 29 11 13 0 57 -70 49 -77 -9 -9 -56 49 -49 61 4 5 1 6
-6 2 -8 -5 -3 -19 16 -46 31 -44 35 -46 53 -25 10 12 3 25 -40 75 -55 63 -54
69 3 45 39 -16 129 -19 162 -6 12 5 -8 7 -50 5 -71 -3 -63 1 32 15 32 5 50 4
47 -1 -4 -5 7 -3 22 5 16 8 61 17 99 19 39 3 85 13 104 22 30 16 48 16 190 7
131 -9 171 -16 237 -40 43 -16 105 -34 136 -41 50 -11 67 -22 119 -74 68 -68
148 -182 185 -266 27 -59 63 -188 65 -229 1 -18 3 -20 6 -8 7 29 -25 169 -57
247 -36 88 -102 188 -170 259 l-51 53 38 -7 c55 -10 230 -110 288 -165 63 -59
220 -167 304 -209 90 -46 356 -101 523 -108 148 -7 227 4 399 53 217 61 356
148 505 312 49 53 79 88 66 78 -26 -23 -28 -15 -6 19 9 14 14 25 11 25 -3 0
-19 -22 -36 -50 -17 -27 -48 -61 -71 -76 -22 -14 -37 -30 -35 -35 3 -4 -6 -16
-20 -25 -13 -9 -22 -20 -19 -25 6 -11 -145 -111 -212 -140 -85 -37 -96 -40
-88 -28 4 7 3 10 -2 7 -70 -33 -108 -47 -152 -57 -88 -19 -92 -11 -7 14 44 13
106 35 138 49 31 14 57 24 57 21 0 -2 27 9 59 26 33 16 63 29 66 29 13 0 136
72 132 77 -3 2 -29 -9 -59 -26 -30 -17 -59 -31 -64 -31 -5 0 0 6 11 12 96 53
156 91 152 94 -3 3 -27 -8 -54 -23 -27 -15 -64 -36 -83 -45 -19 -9 -46 -22
-59 -28 -18 -10 -22 -9 -16 1 10 15 -3 11 -118 -36 -93 -39 -277 -89 -362 -99
-141 -17 -235 -25 -285 -25 l-55 1 45 8 c25 5 99 14 165 20 309 30 542 101
709 215 21 14 41 24 43 21 3 -3 -11 -15 -31 -27 -20 -12 -34 -24 -31 -27 11
-11 178 125 170 138 -3 5 -1 11 4 14 5 3 29 30 52 59 39 47 36 45 -37 -24
-101 -95 -179 -148 -308 -210 -123 -58 -241 -91 -451 -124 -177 -28 -245 -31
-147 -8 35 8 61 17 58 21 -10 9 103 48 162 56 124 16 387 129 517 221 50 36
125 112 125 128 0 3 -7 8 -16 11 -11 4 -31 -7 -58 -32 -56 -51 -146 -112 -231
-154 -114 -57 -125 -55 -40 10 44 33 103 84 130 114 54 57 277 249 283 243 11
-10 -32 -105 -58 -130 -28 -27 -42 -53 -21 -41 5 4 12 0 14 -6 7 -16 98 82
127 137 12 22 14 31 6 20 -9 -11 -35 -44 -57 -73 -23 -29 -43 -51 -45 -49 -3
2 19 41 47 86 29 45 49 84 46 87 -3 3 -15 -13 -27 -36 -24 -46 -37 -49 -20 -4
7 16 20 79 31 139 11 61 22 121 25 133 2 13 1 21 -4 18 -5 -3 -12 -27 -16 -53
-3 -27 -13 -82 -22 -125 l-16 -76 -71 -59 c-39 -32 -82 -67 -95 -77 -25 -19
-25 -19 -13 2 6 12 43 47 81 78 81 65 93 82 20 29 -27 -20 -50 -35 -50 -32 0
2 11 30 25 61 14 31 25 59 25 63 0 11 -37 -42 -59 -85 -33 -65 -86 -118 -181
-182 -90 -60 -220 -135 -220 -127 0 3 21 17 48 32 84 49 149 104 193 166 24
34 68 84 97 113 30 28 70 72 90 98 26 35 38 44 45 35 6 -8 7 -7 4 4 -3 9 10
43 29 74 20 32 49 85 65 117 31 62 99 255 98 279 0 8 -13 -25 -29 -73 -61
-182 -156 -350 -263 -463 l-57 -60 21 60 c26 77 69 254 68 280 0 11 -15 -39
-34 -111 -18 -72 -47 -160 -63 -196 -35 -76 -72 -108 -217 -184 l-90 -47 73
68 c120 112 214 251 261 386 10 30 28 74 40 97 11 22 21 45 21 49 -1 4 -15
-18 -31 -51 -17 -32 -32 -56 -34 -54 -2 1 5 39 14 83 33 145 53 270 49 295 -3
18 -6 11 -12 -25 -9 -63 -53 -205 -70 -225 -7 -8 -20 -36 -30 -62 -54 -146
-218 -320 -370 -392 -105 -50 -200 -86 -326 -121 -120 -34 -127 -31 -45 14
116 64 127 69 214 105 191 80 372 223 472 375 79 121 149 335 136 419 -4 24
-4 23 -6 -7 -2 -46 -41 -211 -50 -211 -4 0 -14 -15 -23 -32 -22 -46 -97 -140
-107 -133 -5 2 -14 -2 -21 -10 -7 -8 -16 -13 -20 -10 -4 3 -25 -20 -45 -50
-21 -30 -66 -78 -99 -107 -97 -82 -107 -88 -32 -18 88 82 179 204 223 297 46
100 41 104 -10 8 -58 -112 -103 -169 -207 -268 -108 -103 -206 -169 -366 -248
-137 -67 -167 -76 -80 -23 346 208 551 400 680 635 41 74 81 184 90 244 4 25
-1 15 -14 -28 -47 -159 -139 -312 -271 -452 -138 -145 -358 -310 -501 -374
-70 -32 -258 -94 -265 -88 -3 4 76 53 245 151 76 44 186 148 254 240 33 44 92
145 132 225 40 80 88 169 108 196 39 55 82 136 92 175 3 14 -3 5 -15 -20 -22
-49 -100 -173 -105 -167 -2 1 3 39 11 82 7 44 18 139 25 210 6 72 20 166 31
210 10 44 21 103 24 130 4 41 2 37 -10 -20 -8 -38 -19 -79 -24 -90 -5 -11 -16
-48 -25 -82 -17 -66 -98 -258 -121 -289 -10 -13 -8 1 6 41 27 79 89 321 88
343 0 9 -16 -39 -34 -108 -77 -286 -151 -448 -282 -621 -87 -116 -173 -217
-173 -206 0 8 45 84 102 172 85 132 140 260 183 429 14 54 25 110 24 125 0 14
-9 -10 -19 -54 -25 -113 -64 -225 -115 -332 -24 -51 -46 -93 -48 -93 -2 0 13
51 34 113 58 173 101 411 97 537 -1 36 -2 43 -5 20 -8 -88 -35 -282 -42 -307
-4 -15 -6 35 -4 112 3 77 1 164 -4 194 -6 41 -8 17 -8 -105 0 -180 -12 -263
-60 -410 -70 -214 -214 -445 -327 -526 -28 -19 -26 -16 13 33 111 136 198 314
245 500 35 139 45 390 20 520 -9 47 -17 126 -18 175 -1 84 -2 85 -7 29 l-6
-60 -24 58 c-13 31 -27 59 -31 62 -4 3 6 -30 24 -73 31 -76 31 -80 31 -247 0
-93 -4 -192 -9 -220 l-10 -50 -7 35 -6 35 -2 -36 c-4 -123 -110 -368 -225
-520 -36 -47 -113 -132 -172 -188 -112 -107 -117 -109 -172 -75 -22 14 -21 16
68 101 275 262 410 676 344 1058 -14 86 -55 224 -76 255 -7 12 -8 10 -3 -5 47
-146 55 -190 53 -299 -1 -69 -3 -87 -5 -46 -2 36 -7 74 -12 85 -5 11 -12 27
-14 35 -3 8 -2 -21 0 -65 6 -86 -16 -197 -62 -320 -28 -75 -125 -269 -131
-262 -2 2 0 17 7 33 22 60 49 202 55 300 8 121 -8 264 -43 384 -28 98 -101
270 -114 270 -5 0 4 -26 20 -57 40 -81 85 -213 107 -313 25 -121 24 -334 -4
-455 -48 -211 -165 -442 -295 -582 -16 -17 -27 -36 -23 -41 3 -5 -5 -7 -20 -4
-14 2 -23 7 -22 11 2 3 19 38 39 76 91 176 177 452 199 641 14 118 7 135 -9
22 -6 -46 -18 -108 -25 -138 l-14 -55 -1 82 c-1 78 9 121 49 208 14 31 60 238
59 266 0 13 -9 -14 -20 -61 -19 -85 -79 -273 -86 -267 -2 2 -12 53 -23 113
-32 170 -79 381 -79 357 -1 -11 15 -104 34 -205 20 -100 38 -217 41 -258 l6
-75 -61 -119 c-64 -125 -87 -160 -77 -116 37 157 55 487 37 687 -11 130 -39
267 -61 301 -11 16 -11 16 -6 -1z m575 -662 c-5 -60 -19 -153 -33 -205 -23
-94 -95 -273 -116 -294 -7 -6 1 16 15 49 81 180 113 321 123 550 6 136 7 144
13 80 4 -38 3 -119 -2 -180z m-49 -55 c-31 -264 -121 -468 -277 -629 -57 -59
-62 -62 -40 -25 76 125 200 413 271 631 25 78 47 150 47 160 1 10 4 5 6 -12 3
-16 0 -72 -7 -125z m276 25 c-11 -207 -49 -366 -131 -541 -78 -168 -217 -346
-308 -394 l-44 -23 -36 29 -37 29 33 24 c74 56 237 231 289 311 134 206 197
385 223 633 11 103 18 60 11 -68z m430 48 c-3 -16 -13 -81 -21 -145 -8 -65
-27 -154 -41 -199 -24 -76 -31 -87 -143 -212 -215 -240 -394 -401 -558 -501
-83 -51 -102 -41 -28 14 33 24 91 75 130 114 38 39 97 95 130 124 72 64 163
167 215 242 87 128 256 437 295 543 20 52 30 62 21 20z m-1067 -242 c-11 -133
-50 -269 -116 -401 -47 -93 -62 -115 -78 -113 -11 1 -14 0 -7 -3 14 -7 16 -30
2 -39 -8 -5 -90 14 -90 21 0 15 15 34 29 35 9 0 11 3 4 5 -8 4 -2 25 17 67 15
34 39 97 53 140 15 42 44 108 65 145 22 37 58 104 81 150 23 45 42 82 44 82 1
0 -1 -40 -4 -89z m-786 -131 c2 -128 -12 -246 -33 -280 -18 -30 -19 0 -4 101
9 57 17 167 17 244 1 179 17 127 20 -65z m404 -69 c-6 -212 -11 -251 -34 -251
-13 0 -15 17 -10 118 3 64 11 173 18 240 19 187 32 131 26 -107z m-1487 132
c19 -52 30 -101 28 -122 -2 -29 -8 -16 -30 69 -14 58 -30 113 -33 123 -4 9 -5
17 -2 17 3 0 19 -39 37 -87z m1987 -227 c-70 -145 -151 -280 -184 -307 -9 -8
-17 -9 -24 -2 -7 7 11 41 53 104 35 53 99 157 142 232 44 75 81 135 83 133 3
-2 -29 -74 -70 -160z m-1341 34 c4 -32 -1 -60 -16 -100 l-20 -55 5 55 c3 30 5
80 5 110 0 64 17 58 26 -10z m931 38 c-3 -8 -6 -5 -6 6 -1 11 2 17 5 13 3 -3
4 -12 1 -19z m-888 -60 c0 -31 -3 -37 -8 -24 -7 18 -3 66 5 66 2 0 4 -19 3
-42z m2091 -45 c-81 -151 -189 -274 -305 -348 -72 -46 -154 -92 -200 -111 -49
-20 -50 -21 55 57 100 73 304 271 410 397 41 49 77 88 79 86 2 -2 -16 -38 -39
-81z m-2723 40 c-3 -10 -5 -4 -5 12 0 17 2 24 5 18 2 -7 2 -21 0 -30z m1482
-77 c-17 -53 -35 -96 -40 -96 -12 0 -12 0 16 64 13 31 30 77 37 103 6 26 13
42 15 36 2 -6 -10 -54 -28 -107z m-427 -11 c-5 -24 -14 -41 -24 -43 -15 -3
-14 5 5 64 16 49 23 61 25 43 1 -13 -1 -42 -6 -64z m284 1 c-14 -47 -36 -84
-36 -59 0 13 44 122 48 118 2 -2 -3 -28 -12 -59z m1900 -6 c-14 -59 -137 -249
-197 -305 -18 -17 -4 6 30 49 37 47 86 128 119 197 32 64 58 116 59 115 1 -1
-4 -26 -11 -56z m-1709 -55 c-35 -72 -50 -93 -62 -89 -17 7 -17 7 -9 28 3 9
16 17 28 17 17 1 18 2 3 6 -10 3 -17 8 -15 12 7 17 93 128 97 125 2 -2 -17
-46 -42 -99z m1612 44 c-46 -78 -121 -169 -181 -221 -78 -66 -158 -121 -165
-114 -4 3 -18 -1 -32 -10 -30 -19 -24 -13 44 47 46 40 47 40 16 6 -19 -20 -30
-37 -24 -37 7 0 36 28 65 62 29 33 96 103 149 154 53 52 109 112 124 134 39
57 42 43 4 -21z m-2522 -43 c-4 -9 -18 -16 -31 -16 l-25 0 15 43 c25 73 27 74
37 30 5 -23 7 -49 4 -57z m749 28 c-4 -18 -12 -34 -17 -34 -6 0 -8 8 -5 18 3
9 8 30 12 47 10 40 18 13 10 -31z m1034 16 c-6 -11 -13 -20 -16 -20 -2 0 0 9
6 20 6 11 13 20 16 20 2 0 0 -9 -6 -20z m-1429 -73 c-8 -8 -11 -7 -11 4 0 20
13 34 18 19 3 -7 -1 -17 -7 -23z m62 27 c8 -9 -11 -44 -23 -44 -6 0 -10 8 -10
18 0 27 18 41 33 26z m211 -27 c-3 -12 -7 -23 -8 -24 0 0 -31 1 -68 4 -55 5
-68 9 -68 23 0 25 2 25 80 22 67 -4 70 -5 64 -25z m-386 6 c-2 -10 -12 -18
-23 -18 -11 0 -21 8 -23 18 -3 13 3 17 23 17 20 0 26 -4 23 -17z m80 0 c-5
-25 -58 -26 -58 -1 0 13 8 18 31 18 23 0 30 -4 27 -17z m135 2 c-3 -9 -8 -14
-10 -11 -3 3 -2 9 2 15 9 16 15 13 8 -4z m-315 -7 c-5 -15 -108 -24 -108 -9 0
14 19 19 68 20 31 1 42 -3 40 -11z m548 -4 c-3 -9 -6 -18 -6 -20 0 -2 -7 -4
-15 -4 -13 0 -14 4 -5 20 13 24 35 27 26 4z m52 -7 c2 -10 -4 -20 -13 -23 -21
-9 -28 0 -20 26 8 24 28 22 33 -3z m-738 -2 c0 -10 -11 -15 -35 -15 -56 0 -41
25 18 29 9 0 17 -6 17 -14z m770 -5 c-6 -11 -13 -20 -15 -20 -3 0 -5 9 -5 20
0 11 7 20 15 20 13 0 14 -4 5 -20z m-872 -2 c-5 -16 -48 -24 -48 -10 0 11 17
20 38 21 8 1 12 -5 10 -11z m2686 -31 c-8 -25 -33 -61 -56 -83 l-41 -39 23 40
c31 53 80 125 85 125 2 0 -3 -20 -11 -43z m-2754 23 c0 -5 -9 -10 -20 -10 -11
0 -20 5 -20 10 0 6 9 10 20 10 11 0 20 -4 20 -10z m-90 -9 c0 -12 -39 -21 -45
-11 -3 5 3 11 12 13 29 8 33 7 33 -2z m-60 -11 c0 -5 -12 -10 -27 -10 -22 0
-25 2 -13 10 20 13 40 13 40 0z m-70 -9 c0 -5 -11 -11 -25 -13 -28 -6 -35 8
-7 15 28 8 32 7 32 -2z m-94 -20 c-7 -11 -66 -20 -66 -10 0 8 24 16 53 18 10
0 16 -3 13 -8z m1684 -36 c-24 -25 -46 -45 -49 -45 -3 0 15 20 39 45 24 25 46
45 49 45 3 0 -15 -20 -39 -45z m464 0 c-15 -20 -45 -50 -68 -68 l-41 -32 39
45 c37 41 87 89 94 90 2 0 -9 -16 -24 -35z m915 -12 c-11 -27 -25 -52 -31 -58
-7 -7 -7 -4 0 10 5 11 17 37 25 58 9 20 18 37 21 37 3 0 -4 -21 -15 -47z
m-3214 17 c-3 -5 -10 -10 -16 -10 -5 0 -9 5 -9 10 0 6 7 10 16 10 8 0 12 -4 9
-10z m-50 -10 c-3 -5 -11 -10 -16 -10 -6 0 -7 5 -4 10 3 6 11 10 16 10 6 0 7
-4 4 -10z m-35 -10 c0 -5 -10 -10 -22 -10 -19 0 -20 2 -8 10 19 13 30 13 30 0z
m-60 -14 c0 -2 -9 -6 -20 -9 -11 -3 -18 -1 -14 4 5 9 34 13 34 5z m3305 -53
c-42 -73 -103 -150 -147 -184 l-39 -31 53 82 c53 82 147 195 156 186 2 -3 -8
-27 -23 -53z m-3430 17 c-11 -5 -27 -9 -35 -9 -9 0 -8 4 5 9 11 5 27 9 35 9 9
0 8 -4 -5 -9z m3051 -49 c-10 -15 -184 -131 -221 -146 -62 -27 -50 -16 40 36
50 28 110 66 135 85 48 36 54 39 46 25z m-355 -22 c-13 -11 -54 -36 -90 -56
-36 -20 -104 -61 -150 -91 -79 -50 -86 -53 -98 -36 -7 10 -13 20 -13 23 0 3
46 24 101 45 55 21 137 61 182 87 90 53 104 58 68 28z m-301 6 c0 -7 -106 -85
-116 -85 -9 0 41 43 85 72 30 19 31 20 31 13z m923 -36 c-10 -16 -44 -64 -76
-105 -51 -65 -69 -80 -139 -115 -152 -77 -381 -139 -565 -154 -78 -7 -83 -6
-83 12 0 18 10 21 98 26 207 14 399 64 527 139 44 26 103 75 160 133 50 51 91
93 93 94 2 1 -5 -13 -15 -30z m-883 17 c0 -12 -122 -97 -133 -93 -6 2 20 24
58 50 76 50 75 49 75 43z m830 -41 c0 -2 -35 -34 -77 -70 -125 -107 -289 -175
-508 -210 -152 -25 -149 -15 5 15 80 16 170 37 200 48 63 22 200 89 200 98 0
3 -7 4 -15 0 -22 -8 -18 2 6 15 17 8 20 8 14 -1 -5 -8 -3 -11 6 -8 8 3 13 10
12 16 -2 6 3 9 10 7 6 -3 39 18 72 45 54 46 75 58 75 45z m-2706 -40 c3 -9 0
-15 -9 -15 -8 0 -15 7 -15 15 0 8 4 15 9 15 5 0 11 -7 15 -15z m93 -11 c-9 -9
-28 6 -21 18 4 6 10 6 17 -1 6 -6 8 -13 4 -17z m141 -2 c26 -34 14 -43 -29
-22 -23 12 -43 19 -46 16 -4 -3 19 -17 50 -32 56 -25 80 -44 55 -44 -7 0 -35
13 -63 28 -45 25 -60 47 -49 73 6 11 69 -3 82 -19z m-379 -17 c18 -32 19 -36
5 -42 -17 -6 -63 41 -64 65 0 26 39 11 59 -23z m69 11 c17 -38 -14 -43 -33 -6
-15 28 -14 30 3 30 10 0 24 -11 30 -24z m-158 2 c0 -7 -3 -23 -6 -35 -6 -21
-8 -22 -35 -7 -25 12 -28 18 -19 34 12 22 60 28 60 8z m130 -40 c0 -17 -10 -6
-25 25 l-16 32 20 -25 c11 -14 21 -28 21 -32z m169 28 c11 -20 10 -28 -5 -51
l-18 -27 -17 23 c-10 13 -15 27 -13 31 3 4 0 8 -6 8 -6 0 -8 5 -5 10 4 6 15 0
27 -15 11 -14 23 -24 26 -21 3 3 -3 15 -12 25 -10 11 -15 25 -11 30 10 17 21
13 34 -13z m254 -1 c-1 -20 -1 -20 13 -1 8 11 14 15 14 9 0 -5 -9 -18 -20 -28
-19 -17 -21 -17 -40 0 -11 10 -17 21 -15 25 3 5 -1 10 -7 13 -7 3 3 4 22 3 29
-1 35 -5 33 -21z m-629 1 c-3 -8 -15 -11 -30 -8 -34 6 -30 22 6 22 21 0 28 -4
24 -14z m431 -6 c3 -5 1 -10 -4 -10 -6 0 -11 5 -11 10 0 6 2 10 4 10 3 0 8 -4
11 -10z m275 -5 c-7 -8 -16 -15 -21 -15 -5 0 -6 7 -3 15 4 8 13 15 21 15 13 0
13 -3 3 -15z m-588 -35 c2 -8 12 -19 22 -25 11 -5 21 -16 24 -23 2 -7 -16 0
-40 15 -36 22 -44 32 -40 51 4 20 7 21 18 10 7 -7 14 -20 16 -28z m641 26 c7
3 2 -3 -10 -14 -15 -13 -31 -18 -49 -14 l-27 5 34 18 c19 9 36 13 37 8 2 -5 9
-7 15 -3z m-975 -26 c20 -32 3 -45 -24 -19 -13 12 -24 26 -24 31 0 16 36 7 48
-12z m22 10 c0 -5 -2 -10 -4 -10 -3 0 -8 5 -11 10 -3 6 -1 10 4 10 6 0 11 -4
11 -10z m59 -14 l23 -25 -26 7 c-14 4 -26 10 -26 15 -1 34 0 34 29 3z m417
-25 c-10 -16 -20 -14 -34 9 -19 30 -4 46 20 22 11 -11 17 -25 14 -31z m189 39
c3 -5 1 -10 -6 -10 -20 0 8 -26 43 -41 27 -11 29 -14 12 -20 -10 -4 -44 -8
-74 -8 l-55 0 30 16 c23 12 35 13 57 5 35 -13 35 -9 2 13 -16 10 -30 13 -37 7
-19 -15 -67 -24 -67 -12 0 6 6 13 14 16 8 3 12 12 9 21 -5 13 -2 13 20 -2 26
-17 33 -13 28 18 -2 11 17 9 24 -3z m315 -5 c-7 -8 -17 -15 -23 -15 -6 0 -2 7
9 15 25 19 30 19 14 0z m-1050 -30 c19 -19 29 -35 24 -35 -6 0 -25 16 -44 35
-19 19 -29 35 -24 35 6 0 25 -16 44 -35z m161 18 c13 -16 12 -17 -3 -4 -17 13
-22 21 -14 21 2 0 10 -8 17 -17z m959 7 c0 -5 -7 -10 -16 -10 -8 0 -12 5 -9
10 3 6 10 10 16 10 5 0 9 -4 9 -10z m1493 -1 c-12 -12 -114 -42 -120 -35 -3 3
94 37 127 45 2 1 -1 -4 -7 -10z m-2653 -34 c33 -34 33 -34 15 -61 -17 -26 -17
-26 -36 -8 -20 20 -38 104 -22 104 5 0 24 -16 43 -35z m521 18 c-8 10 -9 17
-3 17 11 0 42 -38 42 -52 0 -17 -51 -7 -71 13 -17 17 -19 23 -8 30 8 5 21 2
34 -9 19 -16 19 -16 6 1z m-588 -14 c4 -16 3 -18 -9 -8 -16 13 -19 29 -5 29 5
0 11 -9 14 -21z m1032 11 c-3 -5 -13 -10 -21 -10 -8 0 -12 5 -9 10 3 6 13 10
21 10 8 0 12 -4 9 -10z m1770 -25 c-120 -58 -253 -93 -262 -70 -5 15 121 62
224 84 118 25 118 24 38 -14z m365 30 c0 -6 -76 -45 -87 -45 -4 1 12 12 37 25
50 27 50 27 50 20z m348 -27 c-46 -61 -141 -127 -272 -192 -222 -109 -310
-130 -461 -109 -48 6 -48 6 82 39 164 41 516 193 623 268 48 34 57 32 28 -6z
m-4268 -13 c0 -5 -5 -3 -10 5 -5 8 -10 20 -10 25 0 6 5 3 10 -5 5 -8 10 -19
10 -25z m760 -47 c1 -19 -82 4 -112 30 -25 21 -23 26 15 38 30 9 34 7 64 -26
18 -19 32 -38 33 -42z m3057 61 c-62 -32 -236 -87 -331 -104 -160 -27 -168
-15 -11 20 150 34 245 60 320 88 56 22 67 20 22 -4z m-2808 -5 c2 -2 -2 -10
-8 -18 -9 -11 -19 -12 -41 -4 -40 14 -29 39 13 31 18 -3 34 -7 36 -9z m441
-15 c0 -3 -11 -4 -25 -1 -25 4 -31 13 -19 25 7 6 44 -14 44 -24z m637 25 c-3
-3 -12 -4 -19 -1 -8 3 -5 6 6 6 11 1 17 -2 13 -5z m-1020 -31 c-6 -15 -19 -23
-34 -23 -26 0 -27 3 -12 28 6 9 21 17 33 17 21 0 22 -3 13 -22z m96 0 c19 -11
5 -22 -19 -13 -39 15 -64 11 -29 -5 l30 -14 -37 -1 c-41 0 -43 2 -27 31 8 16
16 19 42 13 18 -3 35 -8 40 -11z m892 7 c7 -12 -21 -12 -85 -1 l-45 8 62 2
c34 0 65 -3 68 -9z m80 0 c3 -5 -3 -10 -14 -10 -11 0 -23 5 -26 10 -3 6 3 10
14 10 11 0 23 -4 26 -10z m-1432 -74 l67 -35 -24 -16 c-14 -9 -37 -15 -53 -13
l-28 4 25 12 c24 12 23 12 -12 9 -34 -3 -37 -1 -42 29 -4 17 -16 40 -28 50
l-21 19 17 -32 c34 -66 12 -86 -29 -26 -41 61 -26 86 30 53 17 -10 60 -34 98
-54z m1049 53 c-29 -14 -59 -19 -95 -17 l-52 3 75 16 c102 22 124 21 72 -2z
m1556 14 c-10 -2 -26 -2 -35 0 -10 3 -2 5 17 5 19 0 27 -2 18 -5z m-2068 -19
c0 -2 -14 -4 -31 -4 -16 0 -28 4 -25 9 5 8 56 3 56 -5z m625 7 c-13 -11 -74
-31 -94 -30 -9 0 7 9 34 19 57 21 74 24 60 11z m365 -7 c0 -2 -7 -4 -15 -4 -8
0 -15 4 -15 10 0 5 7 7 15 4 8 -4 15 -8 15 -10z m-1354 -10 c-3 -9 -6 -18 -6
-20 0 -2 -7 -4 -15 -4 -13 0 -14 4 -5 20 13 24 35 27 26 4z m539 6 c-3 -5 -15
-10 -25 -10 -10 0 -22 5 -25 10 -4 6 7 10 25 10 18 0 29 -4 25 -10z m75 6 c0
-2 -9 -6 -20 -9 -11 -3 -18 -1 -14 4 5 9 34 13 34 5z m2520 0 c0 -14 -113 -83
-168 -103 -76 -28 -274 -60 -412 -67 l-95 -5 115 14 c63 8 162 27 220 41 97
24 284 91 320 114 17 11 20 12 20 6z m-3515 -53 c8 -20 13 -38 11 -40 -2 -3
-19 9 -38 26 -28 26 -31 32 -18 41 24 15 29 12 45 -27z m445 27 c12 -8 9 -10
-12 -10 -16 0 -28 5 -28 10 0 13 20 13 40 0z m625 -5 l50 -14 -102 0 c-102 -1
-144 14 -60 22 23 2 47 4 52 5 6 1 33 -5 60 -13z m749 6 c3 -5 21 -12 39 -15
19 -3 42 -13 53 -21 17 -13 13 -13 -31 0 -27 8 -68 22 -90 30 l-40 14 32 1
c17 0 34 -4 37 -9z m-1771 -40 c22 -32 23 -40 11 -45 -14 -5 -21 5 -38 62 -11
32 -2 27 27 -17z m1990 -20 c15 -15 -47 2 -80 22 -18 10 -33 21 -33 23 0 5
103 -36 113 -45z m-2115 27 c13 -13 16 -48 5 -48 -5 1 -24 9 -43 20 l-35 18
25 11 c33 13 34 13 48 -1z m352 2 c0 -5 -7 -7 -15 -4 -8 4 -15 8 -15 10 0 2 7
4 15 4 8 0 15 -4 15 -10z m30 0 c0 -5 -5 -10 -11 -10 -5 0 -7 5 -4 10 3 6 8
10 11 10 2 0 4 -4 4 -10z m107 4 c-3 -3 -12 -4 -19 -1 -8 3 -5 6 6 6 11 1 17
-2 13 -5z m-1047 -29 c7 -8 8 -15 2 -15 -5 0 -15 7 -22 15 -7 8 -8 15 -2 15 5
0 15 -7 22 -15z m500 -47 c19 -24 26 -37 17 -29 -19 15 -61 71 -54 71 2 0 19
-19 37 -42z m117 16 c-7 -7 -37 7 -37 17 0 6 9 5 21 -1 11 -7 19 -14 16 -16z
m-177 7 c0 -5 18 -27 41 -50 33 -34 38 -45 28 -57 -17 -21 -49 -18 -49 5 0 22
-29 95 -35 89 -3 -2 0 -20 5 -39 13 -43 13 -52 0 -44 -9 6 -50 78 -50 89 0 5
26 13 48 15 6 0 12 -3 12 -8z m4129 -18 c-20 -23 -131 -94 -214 -135 -82 -42
-245 -103 -295 -112 -19 -4 12 9 68 29 127 43 306 131 387 190 67 49 74 53 54
28z m-4027 -1 c11 -4 14 -12 9 -20 -6 -9 -12 -8 -26 8 -18 20 -13 24 17 12z
m2296 -22 c49 -29 62 -40 45 -40 -16 0 -127 69 -113 70 8 0 39 -14 68 -30z
m1486 -26 c-110 -85 -289 -174 -326 -162 -7 3 5 11 27 18 62 20 203 94 275
143 85 59 100 60 24 1z m-3994 14 c0 -16 -3 -19 -11 -11 -6 6 -8 16 -5 22 11
17 16 13 16 -11z m61 -30 c26 -35 24 -39 -12 -26 -20 7 -28 15 -25 25 3 8 6
24 7 36 0 15 2 17 6 7 3 -8 14 -27 24 -42z m283 36 c11 -30 6 -42 -21 -47 -25
-5 -93 15 -93 27 0 26 16 36 60 36 34 0 50 -4 54 -16z m44 -3 c10 -6 10 -10
-3 -21 -8 -7 -15 -10 -15 -7 0 3 -3 12 -6 21 -7 17 3 20 24 7z m3065 -21 c-11
-5 -66 -18 -121 -30 -103 -22 -173 -23 -179 -4 -3 8 30 14 99 19 57 4 123 11
148 15 62 10 79 10 53 0z m-3503 -30 c12 -16 19 -30 16 -30 -2 0 -14 14 -26
30 -12 17 -19 30 -16 30 2 0 14 -13 26 -30z m4350 -10 c-25 -22 -49 -40 -55
-40 -5 0 10 18 35 40 25 21 50 39 55 39 6 0 -10 -17 -35 -39z m-4369 -15 l39
-35 -34 0 c-23 0 -39 7 -50 23 -14 17 -16 18 -11 3 4 -14 1 -17 -11 -12 -8 3
-22 6 -30 6 -24 0 -15 16 19 33 17 8 34 16 36 16 2 1 21 -15 42 -34z m3869 20
c-14 -8 -29 -14 -35 -14 -5 0 1 6 15 14 14 8 30 14 35 14 6 0 -1 -6 -15 -14z
m-3570 1 c0 -2 -9 -6 -20 -9 -11 -3 -18 -1 -14 4 5 9 34 13 34 5z m-124 -37
c8 -14 -30 -10 -51 4 -16 13 -15 14 14 9 17 -2 34 -8 37 -13z m3668 -15 c-96
-45 -231 -83 -318 -89 l-71 -5 78 15 c43 8 142 37 220 64 78 27 147 49 152 49
6 0 -22 -15 -61 -34z m-3733 9 c13 -15 12 -15 -8 -4 -24 12 -29 21 -14 21 5 0
15 -7 22 -17z m189 7 c-14 -4 -34 -8 -45 -8 -16 0 -15 2 5 8 14 4 34 8 45 8
16 0 15 -2 -5 -8z m2520 -87 c0 -7 -75 54 -91 74 -8 10 10 -2 39 -26 28 -24
52 -46 52 -48z m433 80 c-7 -2 -19 -2 -25 0 -7 3 -2 5 12 5 14 0 19 -2 13 -5z
m-3373 -74 c0 -17 -6 -32 -15 -35 -15 -6 -95 34 -95 48 0 4 17 19 38 32 l37
25 18 -21 c9 -11 17 -33 17 -49z m80 34 c0 -20 -16 -16 -47 12 l-28 24 38 -11
c20 -6 37 -17 37 -25z m3415 23 l60 -14 -107 -1 c-62 -1 -108 3 -108 8 0 6 17
12 38 14 20 2 42 4 47 5 6 1 37 -5 70 -12z m-3342 -32 c-8 -22 -53 -18 -53 4
0 15 6 18 29 14 20 -3 28 -8 24 -18z m62 6 c3 -5 2 -10 -4 -10 -5 0 -17 -3
-25 -6 -12 -5 -15 -2 -10 10 7 18 29 21 39 6z m3485 -11 c-94 -24 -285 -42
-324 -31 -67 19 -30 27 122 28 86 1 175 6 197 11 22 6 49 11 60 11 11 0 -14
-9 -55 -19z m-3450 -4 c0 -5 -95 -55 -105 -55 -17 0 12 24 49 40 43 20 56 23
56 15z m-317 -88 c-10 -6 -75 25 -102 49 -3 3 4 11 15 18 17 13 23 11 59 -22
29 -26 37 -39 28 -45z m157 43 c0 -27 -47 -33 -54 -6 -11 41 -8 46 24 35 18
-7 30 -18 30 -29z m3020 19 c12 -7 11 -8 -6 -9 -11 0 -29 7 -40 16 -18 14 -18
15 6 8 14 -3 32 -10 40 -15z m-2820 -8 c0 -3 -21 -17 -46 -30 -50 -27 -128
-108 -152 -158 -18 -37 -28 -39 -77 -19 -41 18 -45 31 -10 40 13 3 49 30 78
59 84 82 207 146 207 108z m-166 -6 c-4 -8 -8 -15 -10 -15 -2 0 -4 7 -4 15 0
8 4 15 10 15 5 0 7 -7 4 -15z m3109 -36 c45 -12 93 -18 111 -15 34 6 408 8
414 2 7 -7 -102 -36 -198 -53 -78 -13 -108 -14 -171 -5 -80 11 -221 60 -255
88 -19 15 -19 16 0 9 11 -3 56 -15 99 -26z m154 15 c-3 -3 -12 -4 -19 -1 -8 3
-5 6 6 6 11 1 17 -2 13 -5z m-3552 -82 c-12 -15 -70 52 -60 68 4 6 19 -6 34
-27 16 -21 27 -39 26 -41z m290 58 c-3 -5 -11 -10 -16 -10 -6 0 -7 5 -4 10 3
6 11 10 16 10 6 0 7 -4 4 -10z m-356 -29 c9 -16 8 -18 -9 -14 -21 5 -25 15
-13 26 9 10 11 9 22 -12z m236 10 c17 -7 17 -8 -8 -15 -33 -8 -56 2 -36 15 16
10 18 10 44 0z m-80 -17 c13 -5 14 -8 3 -15 -20 -13 -35 -11 -42 6 -6 16 10
20 39 9z m3325 -14 c8 -5 11 -10 5 -10 -5 0 -17 5 -25 10 -8 5 -10 10 -5 10 6
0 17 -5 25 -10z m-3500 -15 c14 -8 36 -15 50 -15 14 0 33 -7 43 -14 16 -13 16
-14 -5 -20 -56 -15 -101 -5 -147 30 -5 4 20 34 28 34 3 -1 17 -7 31 -15z m270
-5 c0 -5 -10 -15 -22 -21 -23 -12 -23 -12 -4 10 21 23 26 26 26 11z m-390 -28
c0 -13 -12 -22 -22 -16 -10 6 -1 24 13 24 5 0 9 -4 9 -8z m4265 -17 c-27 -7
-61 -13 -75 -13 -14 0 0 6 30 13 72 17 110 16 45 0z m-4183 -26 c18 -6 58 -14
88 -19 l55 -7 -45 -2 c-42 -1 -135 19 -159 34 -6 3 -9 11 -5 16 4 6 11 6 19
-1 7 -6 28 -16 47 -21z m-59 -28 l75 -39 -47 -1 c-91 0 -149 31 -126 69 10 16
19 13 98 -29z m4125 32 c-10 -2 -26 -2 -35 0 -10 3 -2 5 17 5 19 0 27 -2 18
-5z m-4248 -33 c0 -5 -7 -7 -15 -4 -8 4 -12 10 -9 15 6 11 24 2 24 -11z m-10
-30 c33 -17 75 -58 67 -67 -2 -1 -16 1 -32 5 -19 5 -25 11 -17 16 7 4 12 12
12 18 0 6 -9 3 -19 -7 -19 -16 -21 -16 -50 5 -31 22 -37 31 -24 43 10 11 21 8
63 -13z m255 10 c7 -12 -2 -12 -30 0 -19 8 -19 9 2 9 12 1 25 -3 28 -9z m-312
-54 c23 -18 49 -36 57 -40 8 -3 2 -3 -15 0 -32 6 -95 49 -95 65 0 15 9 11 53
-25z m277 4 c-19 -11 -39 -19 -45 -19 -5 0 6 8 25 19 19 11 40 19 45 19 6 0
-6 -8 -25 -19z m-60 -1 c0 -7 -36 -19 -56 -19 -7 0 -14 7 -18 15 -4 13 2 15
34 13 22 -2 40 -6 40 -9z m-270 -41 c0 -9 -54 -11 -63 -2 -3 4 4 15 16 25 20
17 23 17 35 2 6 -9 12 -20 12 -25z m46 -15 c-7 -7 -26 7 -26 19 0 6 6 6 15 -2
9 -7 13 -15 11 -17z m161 1 c-3 -3 -12 -4 -19 -1 -8 3 -5 6 6 6 11 1 17 -2 13
-5z m-397 -8 c0 -2 -8 -10 -17 -17 -16 -13 -17 -12 -4 4 13 16 21 21 21 13z
m172 -11 c23 -5 52 -22 78 -46 40 -38 40 -39 16 -45 -26 -6 -64 10 -133 58
-47 31 -56 53 -20 45 12 -3 39 -9 59 -12z m157 -11 c30 -6 31 -7 15 -25 -19
-22 -44 -18 -83 12 l-24 19 30 0 c17 0 45 -3 62 -6z m91 1 c0 -2 -13 -11 -30
-20 -25 -13 -29 -13 -24 -1 6 16 54 35 54 21z m-256 -83 c-17 -4 -71 33 -84
58 -7 14 6 8 44 -18 29 -20 47 -38 40 -40z m-219 38 c-10 -11 -23 -20 -28 -20
-6 0 -2 9 8 20 10 11 23 20 28 20 6 0 2 -9 -8 -20z m121 -7 c-7 -7 -26 7 -26
19 0 6 6 6 15 -2 9 -7 13 -15 11 -17z m-5 -25 c46 -15 102 -60 87 -69 -21 -13
-168 21 -168 39 0 8 32 42 40 42 4 0 22 -5 41 -12z m279 -3 c-7 -8 -19 -15
-27 -15 -13 0 -13 3 -3 15 7 8 19 15 27 15 13 0 13 -3 3 -15z m-430 -2 c0 -14
-19 -38 -25 -32 -8 8 5 39 16 39 5 0 9 -3 9 -7z m302 -45 c-17 -8 -26 -8 -34
0 -9 9 -4 12 23 11 32 0 33 -1 11 -11z m54 -3 c-11 -8 -27 -15 -35 -15 -11 0
-10 4 5 15 10 8 26 14 34 14 11 0 10 -3 -4 -14z m-396 -10 c0 -8 -4 -15 -9
-15 -13 0 -22 16 -14 24 11 11 23 6 23 -9z m205 -26 l50 -8 -60 3 c-68 5 -119
21 -110 36 4 6 18 4 38 -6 17 -9 54 -20 82 -25z m-232 -5 c8 -8 -46 -83 -60
-84 -19 0 -16 11 12 53 25 36 36 43 48 31z m161 -14 c22 -5 52 -12 66 -14 14
-3 -9 -4 -51 -2 -42 2 -81 6 -88 10 -16 10 -2 29 16 22 9 -4 34 -11 57 -16z
m176 -10 c-8 -5 -19 -10 -25 -10 -5 0 -3 5 5 10 8 5 20 10 25 10 6 0 3 -5 -5
-10z m-165 -29 l80 -7 -47 -8 c-27 -5 -65 -6 -85 -2 -33 5 -35 4 -13 -5 14 -6
51 -9 83 -6 45 4 57 2 57 -9 0 -25 -51 -36 -138 -31 -46 3 -88 9 -93 14 -5 5
1 22 14 41 16 24 27 31 42 26 11 -3 56 -9 100 -13z m-245 -56 c-4 -23 -66
-115 -77 -115 -7 0 -13 5 -13 10 0 19 70 122 81 118 6 -2 10 -8 9 -13z m333
-19 c-15 -19 -32 -35 -37 -35 -6 -1 5 15 24 34 43 45 50 45 13 1z m-195 -13
c50 -7 38 -23 -18 -23 -53 0 -79 10 -73 27 4 9 13 13 27 9 11 -4 40 -9 64 -13z
m102 -38 c-40 -41 -50 -43 -50 -11 0 17 8 26 33 34 51 16 53 14 17 -23z m86
-16 c-8 -19 -27 -45 -42 -59 l-28 -25 19 30 18 30 -21 -19 c-12 -10 -24 -27
-27 -37 -4 -11 -16 -24 -27 -30 -38 -20 19 65 68 102 24 18 44 37 44 43 0 5 2
7 5 4 3 -3 -1 -20 -9 -39z m-195 21 c46 0 49 -2 49 -25 0 -47 -99 -62 -145
-22 -36 30 -25 62 18 53 16 -3 51 -6 78 -6z m1054 -152 c58 -44 137 -75 220
-87 51 -7 54 -9 20 -10 -22 0 -65 6 -95 15 -30 9 -63 16 -72 17 -10 1 -18 5
-18 10 0 4 -5 5 -10 2 -12 -7 -123 109 -157 163 -39 64 -25 57 20 -9 23 -35
64 -80 92 -101z m-1167 99 l22 -24 -30 5 c-33 5 -32 4 -24 26 8 20 6 20 32 -7z
m-106 -26 c-1 -6 -23 -50 -48 -96 -29 -53 -52 -85 -62 -85 -15 -1 -14 -2 2
-11 11 -7 51 -10 100 -7 86 5 135 23 195 74 18 14 34 25 36 22 6 -5 -40 -98
-62 -125 -16 -19 -150 -73 -182 -73 -6 0 -12 17 -13 38 l-1 37 -4 -37 c-3 -29
-9 -38 -23 -38 -27 0 -100 30 -100 41 0 11 81 175 117 237 14 24 30 41 37 39
6 -3 10 -10 8 -16z m247 -33 c-5 -9 -21 -26 -36 -38 -25 -20 -36 -22 -106 -17
-93 6 -93 -2 0 -17 l66 -11 -51 -28 c-57 -31 -149 -51 -180 -40 -20 8 -18 13
38 89 l59 81 110 -1 c99 -1 108 -3 100 -18z m51 -55 c0 -5 -9 -21 -20 -38 -15
-22 -20 -25 -20 -12 0 23 18 57 30 57 6 0 10 -3 10 -7z m-60 -88 c0 -8 -4 -15
-10 -15 -5 0 -7 7 -4 15 4 8 8 15 10 15 2 0 4 -7 4 -15z m-36 -96 c-14 -28
-28 -49 -30 -46 -8 8 40 97 52 97 3 0 -7 -23 -22 -51z m-93 -49 c-23 -51 -19
-48 -81 -60 -60 -11 -71 -6 -64 30 5 21 16 28 77 46 40 12 75 22 79 23 4 0 -1
-17 -11 -39z m15 -17 c-8 -15 -15 -25 -16 -21 0 12 23 58 27 54 3 -2 -2 -17
-11 -33z m-69 -71 c9 -6 4 -25 -19 -75 -17 -37 -35 -67 -40 -67 -11 0 -24 35
-32 92 l-7 47 33 4 c18 2 38 4 43 5 6 1 15 -2 22 -6z m38 -24 c-4 -13 -9 -32
-12 -43 -6 -22 -32 -55 -44 -55 -4 0 5 27 19 60 26 58 50 83 37 38z"/>
<path d="M3505 3610 c-3 -6 1 -7 9 -4 18 7 21 14 7 14 -6 0 -13 -4 -16 -10z"/>
<path d="M1725 2980 c-10 -11 -14 -20 -9 -20 5 0 15 9 22 20 7 11 11 20 9 20
-2 0 -12 -9 -22 -20z"/>
<path d="M1250 2955 c-7 -9 -11 -18 -8 -20 3 -3 11 1 18 10 7 9 11 18 8 20 -3
3 -11 -1 -18 -10z"/>
<path d="M4940 5295 c0 -5 5 -17 10 -25 5 -8 10 -10 10 -5 0 6 -5 17 -10 25
-5 8 -10 11 -10 5z"/>
<path d="M4542 5200 c0 -14 2 -19 5 -12 2 6 2 18 0 25 -3 6 -5 1 -5 -13z"/>
<path d="M5761 5104 c0 -11 3 -14 6 -6 3 7 2 16 -1 19 -3 4 -6 -2 -5 -13z"/>
<path d="M4762 5060 c0 -14 2 -19 5 -12 2 6 2 18 0 25 -3 6 -5 1 -5 -13z"/>
<path d="M3661 4974 c0 -11 3 -14 6 -6 3 7 2 16 -1 19 -3 4 -6 -2 -5 -13z"/>
<path d="M3751 4974 c0 -11 3 -14 6 -6 3 7 2 16 -1 19 -3 4 -6 -2 -5 -13z"/>
<path d="M5671 4944 c0 -11 3 -14 6 -6 3 7 2 16 -1 19 -3 4 -6 -2 -5 -13z"/>
<path d="M3421 4844 c0 -11 3 -14 6 -6 3 7 2 16 -1 19 -3 4 -6 -2 -5 -13z"/>
<path d="M5492 4760 c0 -14 2 -19 5 -12 2 6 2 18 0 25 -3 6 -5 1 -5 -13z"/>
<path d="M3571 4694 c0 -11 3 -14 6 -6 3 7 2 16 -1 19 -3 4 -6 -2 -5 -13z"/>
<path d="M5212 4670 c0 -14 2 -19 5 -12 2 6 2 18 0 25 -3 6 -5 1 -5 -13z"/>
<path d="M5939 4162 c-19 -37 -41 -67 -48 -67 -8 0 -21 -11 -29 -25 -16 -25
-16 -25 4 -7 11 9 23 15 26 12 6 -6 55 71 76 119 23 53 7 35 -29 -32z"/>
<path d="M3142 4175 c0 -16 2 -22 5 -12 2 9 2 23 0 30 -3 6 -5 -1 -5 -18z"/>
<path d="M2169 4113 c23 -35 41 -50 41 -35 0 4 -14 21 -32 38 l-31 29 22 -32z"/>
<path d="M6121 4064 c0 -11 3 -14 6 -6 3 7 2 16 -1 19 -3 4 -6 -2 -5 -13z"/>
<path d="M6312 3750 c-7 -11 -12 -25 -12 -32 1 -7 8 0 16 15 18 33 14 46 -4
17z"/>
<path d="M2131 3236 c2 -2 47 -6 99 -9 57 -3 87 -2 75 3 -19 8 -183 14 -174 6z"/>
<path d="M5977 3184 c-16 -9 -27 -18 -24 -21 6 -5 67 24 67 32 0 8 -14 5 -43
-11z"/>
<path d="M2545 3090 c27 -27 51 -50 54 -50 3 0 -17 23 -44 50 -27 28 -51 50
-54 50 -3 0 17 -22 44 -50z"/>
<path d="M5840 3050 c-9 -6 -10 -10 -3 -10 6 0 15 5 18 10 8 12 4 12 -15 0z"/>
<path d="M1589 2953 c-13 -16 -12 -17 4 -4 9 7 17 15 17 17 0 8 -8 3 -21 -13z"/>
<path d="M3278 2944 c-3 -3 -2 -22 3 -42 30 -129 17 -502 -22 -628 -147 -482
-633 -808 -1204 -808 -107 0 -162 5 -231 21 -180 42 -319 109 -433 211 -70 61
-205 219 -269 314 -24 37 -49 65 -55 61 -6 -3 -7 -1 -3 6 4 6 -9 38 -28 70
-20 32 -42 82 -49 111 -8 29 -17 48 -20 43 -10 -16 45 -173 88 -251 85 -154
248 -348 375 -444 87 -66 206 -123 326 -155 90 -24 116 -26 289 -27 217 -1
317 14 482 69 204 68 367 167 509 309 176 177 278 380 304 605 13 105 9 477
-5 519 -7 20 -43 31 -57 16z m-2128 -994 c34 -47 77 -101 94 -120 19 -21 22
-27 7 -15 -24 21 -123 147 -156 200 -30 48 -12 27 55 -65z"/>
<path d="M1686 2885 c-3 -9 -6 -22 -5 -28 0 -7 5 -1 10 12 5 13 8 26 5 28 -2
2 -6 -3 -10 -12z"/>
<path d="M5098 2805 c-32 -6 -79 -20 -105 -30 -48 -18 -237 -134 -219 -135 5
0 53 25 105 55 112 63 234 101 366 114 l90 8 -90 1 c-49 0 -116 -6 -147 -13z"/>
<path d="M2722 2710 c0 -14 2 -19 5 -12 2 6 2 18 0 25 -3 6 -5 1 -5 -13z"/>
<path d="M4878 2649 c-61 -9 -150 -43 -168 -64 -5 -6 12 -2 39 11 94 46 272
52 396 15 l30 -9 -35 -1 c-40 -1 -149 -24 -225 -46 -59 -17 -179 -91 -170
-105 3 -5 25 4 49 21 25 16 75 41 113 55 58 22 80 25 145 22 67 -4 90 -11 163
-47 57 -28 106 -62 145 -100 65 -64 65 -50 0 18 -56 57 -150 117 -210 132 -73
19 -63 33 19 25 110 -10 166 -36 260 -120 l34 -31 -28 38 c-63 85 -233 167
-387 187 -91 11 -89 11 -170 -1z"/>
<path d="M4612 2610 c0 -14 2 -19 5 -12 2 6 2 18 0 25 -3 6 -5 1 -5 -13z"/>
<path d="M2722 2600 c0 -14 2 -19 5 -12 2 6 2 18 0 25 -3 6 -5 1 -5 -13z"/>
<path d="M4601 2560 c-2 -44 -48 -203 -86 -290 -195 -454 -683 -889 -1195
-1065 -58 -20 -168 -52 -245 -71 l-140 -34 -50 21 c-33 15 -76 23 -125 25
l-75 3 69 -10 c37 -5 87 -18 110 -28 l41 -19 -30 -2 c-16 -2 -39 -4 -50 -6
-84 -16 -315 -45 -435 -53 -80 -6 -174 -14 -210 -17 l-65 -6 30 33 30 34 -38
-35 -38 -35 -157 -3 c-99 -2 -153 0 -147 6 18 17 77 32 129 33 44 0 48 2 26
10 -31 13 -101 3 -161 -22 -39 -17 -52 -18 -90 -9 -24 6 -55 14 -69 16 -14 3
-53 12 -87 20 -42 10 -68 11 -85 5 -37 -16 -126 -32 -223 -41 -50 -5 -110 -17
-135 -28 -25 -11 -56 -23 -70 -27 -23 -7 -21 -4 14 33 74 77 185 121 311 123
67 1 68 1 30 11 -56 13 -146 1 -223 -29 -55 -22 -82 -44 -187 -147 -114 -113
-152 -164 -169 -226 -4 -14 7 1 25 32 53 96 134 180 109 112 -7 -16 -7 -23 0
-19 6 3 10 2 10 -4 0 -5 -4 -13 -10 -16 -5 -3 -15 -15 -21 -26 -6 -11 24 16
67 60 54 57 88 84 113 91 60 17 166 39 169 35 2 -2 -23 -17 -56 -35 -32 -17
-79 -52 -103 -77 l-44 -47 45 38 c56 47 153 95 205 102 l40 5 -30 -22 c-16
-12 -61 -53 -98 -91 -73 -73 -111 -142 -121 -218 -5 -44 -5 -43 14 15 27 83
44 111 114 183 82 84 146 125 177 114 l24 -9 -30 -16 c-44 -22 -109 -91 -140
-148 -33 -62 -27 -76 8 -17 14 24 38 57 52 73 l26 30 -16 -35 c-15 -34 -15
-34 2 -10 74 102 117 125 235 125 47 0 89 -3 92 -6 12 -11 -62 -120 -118 -174
-63 -60 -122 -170 -131 -245 l-5 -45 14 48 c22 74 61 148 107 197 25 28 38 37
35 25 -5 -17 -3 -16 14 5 11 14 20 28 20 31 0 4 7 10 15 13 10 4 5 -10 -13
-37 -16 -23 -37 -58 -46 -77 -19 -40 -17 -38 53 63 54 77 90 97 171 97 37 0
69 -3 73 -6 3 -3 -9 -27 -28 -52 -75 -106 -146 -309 -144 -409 l1 -48 9 63
c19 131 64 207 208 355 36 37 71 67 78 67 7 0 12 3 11 7 -3 16 15 43 29 43 21
0 40 -55 53 -153 11 -82 11 -89 -13 -149 -14 -35 -28 -79 -31 -98 -4 -22 4 -9
21 35 23 57 29 65 31 43 4 -32 -53 -159 -103 -232 l-36 -51 39 42 c67 72 131
213 147 323 7 44 28 90 43 90 4 0 18 -25 31 -56 13 -30 39 -75 58 -100 l35
-45 -27 -140 c-15 -77 -25 -143 -22 -145 4 -5 57 210 57 236 1 11 4 10 12 -4
18 -32 4 -181 -25 -261 -15 -38 -25 -71 -23 -72 2 -2 15 24 30 57 43 96 59
188 53 320 -4 99 -8 126 -36 193 -40 100 -39 107 3 107 30 0 41 -9 103 -83
114 -134 108 -118 108 -302 -1 -119 -5 -176 -18 -221 -19 -71 -21 -87 -6 -61
6 11 19 58 29 105 12 57 19 75 19 52 0 -19 -6 -64 -14 -99 -19 -81 -13 -91 8
-14 19 67 36 178 38 243 l1 45 13 -30 c8 -16 14 -51 15 -77 0 -26 5 -50 11
-54 9 -5 10 15 5 72 -3 43 -8 111 -11 149 l-4 70 14 -68 c8 -38 19 -114 24
-170 l10 -102 -4 140 c-4 162 -18 228 -74 336 l-39 76 57 16 c68 20 69 19 109
-98 25 -74 27 -92 26 -245 0 -122 -4 -183 -17 -234 -25 -98 -14 -93 13 6 48
172 37 393 -26 527 -13 30 -22 61 -19 68 2 8 1 11 -4 8 -5 -3 -24 15 -42 40
-18 25 -34 45 -36 45 -7 0 31 -64 42 -72 16 -12 -6 -25 -60 -37 -46 -9 -51 -9
-65 11 -8 12 -22 29 -30 38 -8 8 -12 11 -7 6 4 -6 7 -14 7 -18 0 -16 -22 -7
-46 19 l-24 26 15 -36 c8 -20 15 -41 15 -47 0 -13 -96 -13 -122 1 -15 8 -19 8
-14 0 4 -7 -1 -12 -13 -12 -25 -2 -30 -3 -54 -14 -12 -5 -22 -2 -32 11 -22 30
-19 32 43 33 31 0 69 4 82 9 18 7 3 8 -47 4 -82 -5 -94 6 -36 33 37 18 53 17
128 -9 11 -4 2 3 -19 15 -51 28 -116 22 -154 -14 -25 -23 -33 -24 -97 -20 -38
3 -74 9 -79 14 -5 5 6 27 28 54 33 40 42 45 79 45 165 0 634 45 752 72 l49 11
43 -47 c38 -42 103 -143 103 -160 0 -14 -54 30 -118 96 -37 39 -76 74 -87 80
-11 6 8 -18 43 -54 86 -88 83 -104 -8 -43 -29 19 -57 35 -64 35 -6 0 6 -10 27
-22 20 -12 37 -25 37 -28 0 -4 -22 -4 -49 1 -56 9 -170 -3 -197 -21 -13 -7
-14 -10 -3 -7 48 15 155 18 214 7 80 -15 101 -31 178 -134 89 -120 121 -197
151 -361 17 -91 24 -119 22 -80 l-4 60 13 -50 c7 -27 14 -61 14 -75 1 -14 5
-31 10 -39 11 -17 5 86 -9 169 -6 31 -30 118 -55 194 -25 77 -43 141 -41 143
6 7 61 -102 90 -180 13 -35 32 -99 41 -141 21 -92 31 -95 15 -5 -26 150 -83
297 -138 361 -16 18 -50 74 -75 123 -26 50 -65 110 -87 134 -22 24 -39 45 -38
46 2 1 55 15 118 30 170 41 300 86 439 150 l124 58 96 -23 c124 -29 135 -36
71 -43 -29 -4 -58 -11 -65 -17 -9 -7 -27 -7 -61 0 -31 6 -60 7 -79 1 -26 -8
-21 -10 35 -12 l65 -2 -67 -7 c-38 -3 -70 -9 -73 -12 -3 -3 29 -8 72 -10 43
-3 94 -12 113 -21 l35 -15 -40 4 c-30 3 -24 -1 27 -15 76 -21 121 -53 203
-144 68 -75 177 -236 215 -320 38 -82 38 -55 0 34 -34 80 -32 91 4 22 14 -27
25 -44 26 -40 0 14 -62 131 -103 192 -22 33 -70 90 -105 128 -36 37 -62 67
-58 67 14 0 112 -68 160 -111 61 -54 153 -168 196 -244 18 -31 34 -54 37 -51
6 6 -57 114 -112 191 -48 67 -120 138 -183 180 -62 41 -51 41 26 1 152 -80
271 -196 335 -326 26 -52 33 -80 36 -142 2 -43 -2 -91 -8 -108 -5 -17 -6 -28
-1 -25 16 10 30 109 26 186 -4 88 -25 143 -90 233 -42 59 -159 178 -221 224
-50 38 9 6 90 -48 73 -49 185 -161 185 -185 0 -7 6 -15 14 -18 8 -3 29 -35 47
-72 51 -104 52 -204 2 -267 l-25 -33 30 32 c73 76 62 203 -30 345 -23 35 -52
83 -65 108 -23 42 -18 38 67 -47 50 -51 87 -87 83 -79 -27 48 -132 160 -213
228 -132 110 -249 167 -453 218 -87 22 -166 40 -177 40 -11 0 -20 5 -20 11 0
6 -7 8 -17 4 -27 -10 -8 5 102 77 378 250 667 603 778 953 31 95 51 198 44
217 -3 7 -6 2 -6 -12z m-608 -1340 c163 -51 339 -159 379 -234 7 -12 -7 -5
-34 19 -93 82 -251 162 -410 209 -76 23 -79 25 -42 25 23 1 71 -8 107 -19z
m-143 4 c18 -4 27 -10 20 -14 -7 -4 9 -12 35 -19 71 -18 169 -65 238 -115 64
-45 206 -186 246 -243 36 -53 16 -38 -24 18 -76 103 -235 208 -405 267 -89 31
-205 94 -193 105 8 9 41 9 83 1z m-2290 -183 c22 -7 19 -9 -20 -14 -69 -9
-207 -16 -190 -10 66 27 164 37 210 24z m119 -33 c38 -8 48 -14 41 -23 -8 -9
-41 -11 -118 -7 -73 3 -116 1 -130 -7 -14 -8 -28 -9 -39 -3 -26 15 50 35 111
29 28 -3 43 -3 34 0 -30 8 -20 23 16 23 19 0 57 -5 85 -12z m384 -32 c5 -1 -9
-21 -30 -46 -29 -31 -44 -42 -57 -37 -15 6 -14 10 11 33 29 26 17 23 -27 -7
-19 -13 -56 -19 -143 -23 -77 -4 -129 -12 -148 -22 -29 -14 -30 -14 -21 3 6
10 21 28 34 40 21 20 29 21 58 13 54 -15 70 -10 22 7 -41 14 -42 16 -27 33 14
16 31 17 168 13 84 -3 156 -6 160 -7z m-1073 -76 c-18 -23 -34 -39 -37 -36 -9
8 27 65 44 69 10 3 20 5 21 6 2 0 -11 -17 -28 -39z m906 -29 c-3 -5 -15 -7
-26 -4 -28 7 -25 13 6 13 14 0 23 -4 20 -9z m72 0 c20 -12 -9 -32 -36 -24 -18
4 -20 8 -11 19 13 16 28 17 47 5z m522 -39 c-7 -3 -16 2 -21 9 -16 25 -9 32
12 13 13 -12 16 -20 9 -22z m-324 -26 c-1 -30 -9 -63 -17 -72 -13 -16 -15 -11
-25 42 l-12 59 -1 -85 c-1 -59 -4 -80 -11 -70 -5 8 -10 27 -10 41 0 14 -9 51
-19 82 l-20 57 59 0 59 0 -3 -54z m888 29 c9 -14 15 -25 13 -25 -2 0 -14 11
-27 25 -13 14 -19 25 -13 25 6 0 18 -11 27 -25z m-1114 -11 c0 -2 -38 -42 -85
-89 l-85 -85 30 60 c43 86 83 128 115 122 14 -2 25 -6 25 -8z m269 -30 c-18
-21 -27 -17 -21 11 3 20 7 23 18 14 11 -9 11 -15 3 -25z m921 -25 c0 -18 -10
-8 -25 24 l-16 32 21 -24 c11 -13 20 -27 20 -32z m-660 36 c0 -3 9 -37 19 -75
11 -39 19 -70 17 -70 -1 0 -33 34 -70 75 l-67 75 50 0 c28 0 51 -2 51 -5z m52
-12 c27 -34 38 -74 38 -146 -1 -67 -2 -70 -15 -47 -8 14 -14 33 -15 42 0 10
-11 51 -24 93 -17 53 -20 75 -11 75 6 0 18 -8 27 -17z m-251 -30 c15 -41 5
-48 -14 -9 -9 20 -12 36 -7 36 6 0 15 -12 21 -27z m-6 -73 c15 -46 25 -95 23
-117 l-3 -38 -38 73 c-53 100 -61 131 -41 154 9 9 20 15 25 13 4 -3 19 -41 34
-85z m2185 36 c0 -12 -5 -7 -19 24 -11 24 -11 24 3 6 9 -11 16 -24 16 -30z
m19 -56 c0 -10 -3 -8 -9 5 -12 27 -12 43 0 25 5 -8 9 -22 9 -30z m-2141 -100
c0 -9 -3 -7 -8 5 -5 11 -8 29 -8 40 0 16 2 15 8 -5 4 -14 8 -32 8 -40z m271
-55 c1 -16 -1 -17 -9 -5 -5 8 -9 29 -9 45 1 29 1 29 9 5 4 -14 8 -34 9 -45z
m-42 -127 c-2 -29 -3 -6 -3 52 0 58 1 81 3 53 2 -29 2 -77 0 -105z"/>
<path d="M4933 2470 c-22 -5 -63 -18 -90 -28 -26 -11 -68 -25 -93 -31 -28 -6
-32 -8 -10 -5 l34 4 -39 -41 c-22 -23 -53 -50 -70 -60 -16 -10 -25 -19 -18
-19 8 0 6 -13 -7 -42 -11 -24 -19 -54 -19 -68 0 -18 4 -13 16 20 21 62 50 100
88 115 50 22 158 44 244 51 74 6 83 5 125 -20 38 -22 92 -74 84 -81 -2 -2 -37
6 -78 16 -94 25 -238 27 -312 5 -32 -9 -70 -30 -93 -51 l-40 -35 52 34 c88 58
196 67 368 32 l60 -12 -126 -12 c-69 -6 -137 -16 -150 -22 -21 -9 -20 -10 11
-6 95 14 195 18 263 11 73 -6 76 -8 86 -37 6 -17 11 -32 11 -33 0 -1 -26 7
-57 19 -45 16 -82 20 -163 20 -93 -1 -116 -4 -195 -33 -49 -18 -108 -37 -129
-42 -45 -11 -88 -34 -46 -24 23 5 23 4 6 -7 -57 -39 -52 -44 13 -11 l73 38
150 3 c155 4 279 -12 340 -44 23 -12 28 -21 30 -57 l1 -42 6 42 6 42 52 -30
c125 -73 197 -170 227 -309 8 -36 15 -54 15 -40 1 14 -5 49 -13 79 -7 29 -10
49 -6 44 11 -12 50 -143 51 -172 0 -14 3 -20 6 -13 3 8 1 39 -5 70 -7 35 -8
110 -4 192 5 104 4 141 -7 163 -7 16 -11 31 -8 34 8 7 39 -56 32 -67 -3 -5 0
-12 6 -16 6 -3 20 -25 30 -48 10 -22 19 -33 19 -23 0 23 -65 165 -88 190 -16
19 -16 19 8 12 14 -4 48 -20 75 -36 44 -26 47 -27 21 -5 -16 13 -54 37 -83 52
-30 15 -82 55 -116 89 -94 94 -283 174 -449 190 -34 3 -83 9 -108 12 l-45 6
50 13 c59 16 137 18 183 5 18 -6 30 -6 27 -1 -7 11 -97 30 -133 29 -15 -1 -46
-5 -69 -9z m10 -66 c20 -4 37 -11 37 -15 0 -5 -17 -9 -37 -10 -21 0 -78 -11
-128 -23 -49 -13 -91 -23 -93 -21 -1 1 21 18 50 38 54 39 87 44 171 31z m272
-58 c28 -7 73 -24 100 -38 53 -28 179 -118 172 -124 -2 -2 -23 2 -46 11 -23 8
-78 21 -122 30 -83 15 -119 29 -119 45 0 6 -18 28 -40 50 -36 36 -38 40 -17
40 12 0 45 -6 72 -14z m200 -212 c44 -25 98 -60 119 -78 l40 -33 4 -91 c2 -50
1 -103 -2 -119 -7 -26 -8 -26 -37 28 -40 72 -149 181 -220 219 -32 17 -61 35
-65 41 -10 17 3 21 28 8 17 -9 15 -4 -9 18 -18 17 -33 38 -33 46 0 9 -3 23 -6
32 -6 13 1 13 47 -5 30 -12 90 -41 134 -66z m28 41 c66 -18 69 -20 94 -68 l25
-50 -49 35 c-26 20 -74 50 -105 68 -53 29 -76 49 -45 38 6 -3 43 -13 80 -23z
m-258 -22 c32 -12 51 -25 53 -37 3 -15 0 -17 -14 -12 -57 23 -172 39 -284 39
-126 1 -129 5 -15 27 71 13 202 4 260 -17z"/>
<path d="M4315 2243 c-173 -262 -301 -390 -559 -561 -147 -98 -159 -115 -24
-35 225 134 404 308 568 553 58 87 84 130 77 130 -2 0 -30 -39 -62 -87z"/>
<path d="M2579 2273 l-24 -28 28 24 c25 23 32 31 24 31 -2 0 -14 -12 -28 -27z"/>
<path d="M1690 2256 c0 -2 8 -10 18 -17 15 -13 16 -12 3 4 -13 16 -21 21 -21
13z"/>
<path d="M2153 2103 c9 -2 25 -2 35 0 9 3 1 5 -18 5 -19 0 -27 -2 -17 -5z"/>
<path d="M4677 2026 c-49 -13 -92 -28 -95 -32 -4 -4 4 -4 18 -1 14 4 50 9 80
12 58 5 61 6 -42 -25 -25 -7 -26 -8 -5 -5 15 3 80 10 145 14 196 15 334 -10
444 -80 26 -17 48 -33 48 -35 0 -2 -32 12 -70 31 -39 19 -96 42 -127 50 -69
18 -228 18 -368 0 l-100 -12 70 -2 70 -2 -51 -14 c-29 -8 -67 -21 -85 -30 -19
-8 -25 -13 -14 -9 231 67 456 61 620 -17 146 -70 230 -142 274 -237 13 -28 27
-49 32 -47 13 8 29 -56 30 -119 0 -43 3 -55 9 -41 14 34 11 122 -7 167 -40
104 -151 228 -274 308 -35 23 -53 39 -39 35 55 -16 141 -70 215 -134 l40 -35
-45 48 c-86 92 -163 131 -395 201 -132 39 -261 43 -378 11z m223 5 c34 -7 15
-8 -75 -8 -79 0 -106 2 -80 7 55 10 102 10 155 1z"/>
<path d="M4545 1980 c-3 -6 1 -7 9 -4 18 7 21 14 7 14 -6 0 -13 -4 -16 -10z"/>
<path d="M4785 1890 c-33 -5 -98 -18 -145 -30 -47 -11 -94 -23 -104 -25 -11
-2 -42 1 -68 6 -27 6 -52 8 -55 5 -3 -3 14 -8 37 -12 l43 -7 -58 -30 c-59 -29
-165 -127 -165 -150 0 -7 10 0 21 15 21 29 87 74 95 65 6 -6 -165 -166 -192
-179 -11 -5 -26 -18 -32 -29 -12 -19 -12 -19 10 -5 57 37 278 43 428 11 126
-27 279 -94 338 -148 25 -23 47 -88 62 -182 8 -54 9 -50 5 40 l-4 100 50 -55
c67 -75 117 -176 133 -275 9 -53 14 -68 15 -44 4 113 -50 238 -145 339 -45 47
-68 82 -78 114 l-14 46 45 -33 c25 -17 75 -63 111 -102 36 -38 60 -60 53 -47
-18 34 -135 155 -180 187 -23 15 -54 51 -71 81 -17 30 -47 73 -68 95 l-37 42
35 -8 c76 -15 175 -56 214 -87 23 -18 35 -25 27 -15 -20 26 -6 21 69 -23 88
-51 157 -121 188 -189 21 -46 24 -63 20 -134 -4 -59 -2 -74 5 -57 5 14 10 54
11 90 2 131 -88 244 -271 338 -100 51 -244 102 -289 102 -14 0 -41 11 -61 25
-30 20 -34 25 -19 31 38 15 111 -5 217 -59 60 -30 109 -54 109 -52 0 2 -24 18
-52 36 -29 18 -66 44 -82 58 -16 14 -26 20 -22 14 9 -16 -2 -16 -32 1 -21 11
-18 13 35 14 47 1 65 -3 98 -25 37 -24 39 -24 20 -3 -20 22 -19 22 31 -3 29
-14 68 -45 89 -69 28 -32 33 -35 20 -13 -29 49 -54 72 -109 99 -83 40 -214 87
-280 99 l-61 11 70 7 c171 16 325 -28 433 -124 l47 -41 -50 53 c-66 69 -164
117 -268 131 -86 11 -85 11 -172 0z m20 -84 l40 -16 -45 5 c-25 3 -83 8 -130
11 -60 5 -79 9 -65 15 29 13 153 3 200 -15z m86 0 c27 -11 30 -15 13 -15 -12
-1 -41 8 -65 20 -40 18 -41 20 -13 15 18 -3 47 -12 65 -20z m-411 -11 c0 -6
-56 -35 -67 -35 -4 1 8 9 27 20 39 22 40 22 40 15z m153 -22 l32 -17 -65 -18
c-36 -10 -51 -16 -34 -13 122 17 130 17 142 3 10 -13 -4 -16 -99 -21 -77 -5
-115 -11 -123 -21 -6 -7 -18 -16 -26 -20 -8 -3 -3 -4 11 -1 77 14 171 25 225
25 60 0 63 -1 101 -43 47 -51 78 -96 71 -102 -3 -3 -29 5 -59 19 -137 60 -285
73 -434 37 -100 -24 -84 -26 43 -5 137 22 243 7 400 -58 67 -28 75 -34 98 -79
13 -27 22 -49 20 -49 -3 0 -27 14 -53 30 -66 42 -183 86 -282 104 -88 17 -253
20 -333 7 -27 -4 -48 -6 -48 -3 0 2 12 14 27 26 15 11 67 56 115 98 98 86 111
94 165 107 57 13 71 13 106 -6z m97 7 c12 -7 8 -10 -15 -10 -16 0 -37 5 -45
10 -12 7 -8 10 15 10 17 0 37 -5 45 -10z"/>
<path d="M4448 1683 c7 -3 16 -2 19 1 4 3 -2 6 -13 5 -11 0 -14 -3 -6 -6z"/>
<path d="M4345 1520 c115 -13 121 -17 30 -20 l-80 -2 85 -14 c138 -23 269 -96
393 -218 89 -88 111 -127 103 -183 -3 -25 -15 -63 -27 -82 -16 -27 -17 -32 -4
-19 10 9 25 40 35 68 15 46 19 50 29 34 15 -27 13 -8 -3 24 -7 15 -16 47 -20
71 -4 24 -14 57 -22 75 l-16 31 30 -28 c36 -34 79 -111 104 -186 l18 -56 -6
45 c-12 92 -59 168 -167 272 -148 142 -248 185 -452 193 -109 4 -109 4 -30 -5z
m333 -114 c104 -53 161 -116 187 -206 6 -19 1 -16 -22 15 -50 68 -169 170
-243 209 -38 20 -70 39 -70 41 0 6 91 -30 148 -59z"/>
<path d="M334 1447 c61 -61 82 -120 67 -188 -10 -43 -20 -58 -87 -125 -70 -70
-72 -94 -2 -29 111 104 133 153 108 243 -12 47 -67 115 -111 137 -20 11 -13 0
25 -38z"/>
<path d="M167 1418 c-11 -46 -27 -85 -46 -109 -46 -56 -97 -158 -111 -218 -41
-179 55 -346 212 -366 l43 -5 -48 13 c-74 22 -128 65 -160 128 -61 119 -45
243 53 397 46 73 61 108 70 159 15 88 8 89 -13 1z"/>
<path d="M4048 1469 c-62 -9 -147 -40 -272 -101 -110 -53 -75 -48 45 7 104 47
189 75 223 75 15 0 9 -6 -19 -20 -22 -11 -31 -18 -20 -14 70 22 97 27 152 27
34 0 73 -4 85 -10 202 -93 259 -134 344 -244 47 -61 127 -205 139 -249 3 -14
-10 4 -30 40 -51 89 -109 162 -196 246 -88 85 -156 130 -224 149 -52 14 -179
30 -135 17 15 -5 -15 -8 -80 -9 -58 0 -118 -5 -135 -11 -23 -7 -10 -8 54 -4
62 4 82 2 77 -6 -4 -7 -17 -12 -30 -12 -12 0 -53 -11 -92 -24 -76 -27 -75 -35
2 -11 165 50 346 10 496 -110 64 -52 141 -148 171 -215 11 -25 24 -47 28 -50
5 -3 15 -30 23 -60 10 -36 15 -46 15 -28 1 14 -8 54 -18 87 -10 34 -17 61 -15
61 5 0 33 -65 50 -115 7 -22 13 -32 13 -22 1 10 -8 42 -18 72 -11 30 -18 55
-15 55 2 0 20 -32 40 -71 34 -68 35 -74 24 -117 -6 -25 -18 -58 -26 -74 -8
-15 -12 -28 -9 -28 8 0 45 78 45 95 0 27 20 16 21 -12 2 -59 -3 -89 -23 -122
-14 -24 -15 -31 -4 -22 8 7 21 28 28 46 6 19 15 32 20 29 10 -6 10 -7 -3 79
-33 228 -150 432 -324 565 -25 19 -26 21 -5 11 71 -34 160 -130 235 -255 46
-76 45 -59 -1 25 -104 188 -233 286 -417 316 -122 20 -156 22 -219 14z m149
-95 c-3 -3 -12 -4 -19 -1 -8 3 -5 6 6 6 11 1 17 -2 13 -5z m199 -104 c24 -17
44 -33 44 -36 0 -3 -21 9 -47 27 -58 39 -58 39 -49 39 4 0 27 -14 52 -30z"/>
<path d="M3145 1425 c-142 -38 -474 -88 -684 -104 -186 -15 -339 -14 -602 5
-270 18 -583 20 -697 4 -117 -16 -199 -43 -327 -108 -60 -30 -150 -70 -200
-88 -49 -18 -84 -33 -78 -34 26 -1 142 44 260 101 275 132 417 148 993 108
436 -30 705 -20 1065 41 129 22 374 82 403 99 27 16 7 12 -133 -24z"/>
<path d="M121 1384 c0 -11 3 -14 6 -6 3 7 2 16 -1 19 -3 4 -6 -2 -5 -13z"/>
<path d="M3455 1113 c-16 -8 -38 -22 -48 -31 -14 -13 -24 -13 -56 -4 -65 20
-69 13 -8 -12 76 -31 129 -69 179 -125 60 -69 67 -92 12 -40 -65 62 -137 115
-193 143 -66 33 -106 42 -46 10 55 -30 158 -105 151 -111 -2 -2 -32 14 -66 36
-35 23 -68 41 -74 41 -6 -1 1 -8 17 -16 34 -19 35 -27 1 -14 -50 20 -38 9 35
-28 41 -20 74 -41 73 -47 0 -5 31 -42 69 -82 81 -83 113 -147 155 -303 22 -86
27 -127 28 -227 1 -78 4 -114 10 -100 4 12 9 107 10 211 l1 188 29 -63 c16
-35 41 -113 57 -174 29 -113 41 -110 14 4 -9 35 -14 66 -11 68 2 2 16 -31 30
-74 34 -103 42 -184 23 -245 -8 -27 -12 -46 -7 -43 12 7 30 89 30 136 0 24 -9
82 -19 129 -11 47 -24 116 -30 154 -13 92 -64 192 -143 283 -35 39 -81 97
-103 128 -35 49 -132 135 -167 148 -22 8 13 35 64 48 55 15 88 3 205 -73 88
-57 185 -174 246 -297 41 -83 42 -87 46 -205 3 -77 7 -110 12 -91 19 81 5 206
-32 292 -26 62 -14 53 20 -15 38 -75 58 -148 69 -247 l9 -80 2 65 c2 139 -46
274 -143 397 -60 77 -200 203 -252 228 -44 21 -43 26 4 13 70 -19 177 -80 231
-131 30 -29 49 -44 42 -34 -8 9 -12 20 -9 23 12 11 136 -139 175 -212 54 -104
74 -163 83 -254 l7 -75 2 64 c3 133 -75 314 -185 430 -72 77 -239 182 -335
212 -74 23 -173 24 -214 2z m164 -368 c49 -72 71 -135 70 -202 0 -34 -3 -30
-23 37 -31 104 -65 174 -120 250 -37 51 -39 56 -11 25 19 -22 57 -71 84 -110z
m92 -43 c45 -59 72 -111 93 -181 23 -78 19 -95 -9 -34 -13 28 -41 82 -63 120
-45 76 -75 143 -64 143 4 -1 23 -22 43 -48z"/>
<path d="M968 1080 c-88 -26 -156 -110 -202 -250 -15 -45 -25 -84 -23 -86 2
-3 21 35 41 84 65 157 117 219 208 247 24 8 34 14 23 13 -11 0 -32 -3 -47 -8z"/>
<path d="M1428 1073 c6 -2 18 -2 25 0 6 3 1 5 -13 5 -14 0 -19 -2 -12 -5z"/>
<path d="M783 1002 c-71 -65 -145 -113 -230 -148 -62 -25 -139 -30 -256 -15
-32 4 -60 4 -62 1 -7 -12 201 -33 252 -26 68 9 176 65 259 134 56 48 117 114
102 112 -2 -1 -31 -27 -65 -58z"/>
<path d="M3162 955 c54 -43 95 -92 136 -165 43 -78 50 -117 8 -45 -44 77 -109
151 -150 172 -25 13 -22 7 19 -29 57 -52 115 -145 168 -268 30 -71 37 -101 43
-185 10 -163 -23 -317 -84 -390 l-17 -20 24 20 c51 43 86 145 98 285 l7 85 17
-70 c16 -64 17 -65 13 -20 -17 153 -91 412 -142 490 -37 58 -155 175 -175 175
-6 0 10 -16 35 -35z"/>
<path d="M3222 966 c189 -66 329 -219 387 -423 23 -80 28 -54 6 30 -33 127
-116 248 -221 323 -63 45 -178 94 -219 93 -11 0 10 -11 47 -23z"/>
<path d="M1517 898 c-23 -64 -119 -270 -124 -264 -6 6 56 225 73 258 27 51 9
41 -20 -12 -15 -28 -43 -114 -62 -191 -19 -77 -42 -152 -52 -167 -9 -14 -12
-23 -6 -20 15 10 97 134 127 193 33 66 89 225 85 243 -2 7 -11 -10 -21 -40z"/>
<path d="M3402 924 c10 -10 20 -16 22 -13 3 3 -5 11 -17 18 -21 13 -21 12 -5
-5z"/>
<path d="M5182 895 c0 -16 2 -22 5 -12 2 9 2 23 0 30 -3 6 -5 -1 -5 -18z"/>
<path d="M2844 728 c75 -145 147 -322 145 -359 0 -8 -13 26 -30 75 -51 155
-147 310 -232 376 -29 22 -28 20 8 -20 116 -128 210 -327 250 -528 10 -46 15
-94 12 -107 -2 -14 -1 -22 3 -20 4 2 10 36 14 74 11 127 -38 313 -121 461 -48
83 -126 210 -129 210 -3 0 34 -73 80 -162z"/>
<path d="M1735 687 c-57 -106 -107 -177 -158 -225 -26 -23 -43 -42 -39 -42 19
0 94 65 127 110 35 48 120 218 113 226 -2 2 -21 -29 -43 -69z"/>
<path d="M4791 684 c0 -11 3 -14 6 -6 3 7 2 16 -1 19 -3 4 -6 -2 -5 -13z"/>
<path d="M4031 364 c0 -11 3 -14 6 -6 3 7 2 16 -1 19 -3 4 -6 -2 -5 -13z"/>
</g>
</svg>
