<?xml version="1.0" standalone="no"?>
<!DOCTYPE svg PUBLIC "-//W3C//DTD SVG 20010904//EN"
 "http://www.w3.org/TR/2001/REC-SVG-20010904/DTD/svg10.dtd">
<svg version="1.0" xmlns="http://www.w3.org/2000/svg"
 width="640.000000pt" height="586.000000pt" viewBox="0 0 640.000000 586.000000"
 preserveAspectRatio="xMidYMid meet">

<g transform="translate(0.000000,586.000000) scale(0.100000,-0.100000)"
fill="#000000" stroke="none">
<path d="M407 5849 c5 -5 70 -27 144 -49 371 -107 649 -224 861 -362 339 -222
586 -541 711 -918 38 -113 69 -249 61 -262 -9 -15 -36 -8 -187 48 -331 123
-542 164 -867 171 -254 6 -373 -6 -565 -57 -178 -47 -395 -142 -445 -195 l-22
-23 91 28 c100 32 326 81 466 101 135 20 395 16 536 -10 204 -36 387 -103 529
-195 l71 -46 -3 57 c-4 72 -4 72 150 -3 224 -109 305 -247 184 -317 -26 -15
-51 -19 -126 -18 -85 1 -97 -1 -131 -25 -47 -31 -54 -31 -295 19 -420 87 -962
135 -1205 108 -135 -15 -279 -40 -324 -56 l-36 -12 55 -6 c30 -4 172 -9 315
-11 304 -6 474 -23 715 -72 280 -57 543 -150 843 -300 70 -35 127 -62 127 -60
0 2 -7 23 -15 46 -19 54 -19 93 0 130 35 67 114 81 181 32 81 -60 184 -193
184 -239 0 -24 -7 -27 -92 -38 -63 -8 -77 -26 -53 -71 25 -46 56 -64 133 -76
37 -5 76 -16 88 -23 11 -7 40 -46 63 -85 105 -176 322 -425 411 -470 23 -12
44 -19 46 -17 3 2 -27 44 -66 93 -39 49 -85 118 -103 154 -28 57 -32 74 -32
150 0 119 24 163 177 329 101 109 131 148 178 238 31 59 61 108 66 109 5 1 35
-51 67 -116 53 -110 63 -124 135 -187 191 -168 232 -230 232 -347 -1 -117 -49
-213 -163 -328 -58 -59 -64 -68 -44 -68 81 0 311 242 438 462 23 40 49 81 57
90 8 10 51 29 96 43 93 28 138 63 116 90 -7 9 -29 15 -51 15 -51 0 -92 35 -92
78 0 60 108 162 235 222 75 35 96 37 132 9 33 -26 34 -71 6 -154 -11 -33 -19
-62 -18 -67 2 -4 48 13 103 38 318 145 635 266 823 315 134 34 261 44 697 54
154 4 307 10 340 14 l60 7 -53 12 c-136 31 -571 56 -802 47 -246 -10 -351 -24
-731 -97 -120 -22 -224 -38 -233 -35 -9 4 -21 18 -26 32 -5 14 -17 25 -27 26
-10 1 -54 2 -98 4 -102 3 -122 9 -141 47 -13 26 -14 38 -4 73 17 61 77 135
135 167 54 30 223 88 255 88 32 0 30 -42 -3 -79 l-22 -24 22 12 c13 6 62 36
110 65 224 136 452 196 746 196 176 0 253 -11 565 -81 123 -27 227 -48 230
-45 7 7 -167 89 -272 128 -107 39 -253 73 -401 94 -163 22 -472 22 -620 -1
-208 -32 -459 -107 -660 -197 -132 -59 -150 -58 -140 5 25 161 140 455 240
611 96 150 309 377 463 495 237 180 606 351 952 441 l145 38 -130 1 c-286 2
-609 -84 -964 -255 -124 -60 -630 -340 -704 -390 -16 -10 -9 -15 58 -35 42
-12 79 -28 82 -35 3 -8 -25 -65 -61 -127 -125 -214 -240 -504 -270 -677 -22
-129 -30 -321 -17 -435 26 -232 26 -237 -4 -293 -39 -72 -118 -157 -168 -181
-90 -44 -195 -20 -287 66 -178 165 -333 554 -314 788 5 65 3 83 -9 93 -25 21
-35 -6 -62 -164 -47 -277 -89 -423 -158 -557 -128 -249 -336 -317 -502 -165
-106 97 -127 165 -101 333 63 414 2 674 -275 1177 -33 59 -59 110 -59 115 0
13 65 53 104 64 20 5 36 14 36 19 0 28 -236 170 -515 311 -418 209 -735 312
-1094 354 -152 18 -219 19 -204 4z"/>
<path d="M1672 3290 c-100 -15 -88 -25 59 -51 206 -36 388 -109 470 -189 l46
-45 12 -109 c7 -60 21 -132 32 -160 60 -158 201 -268 465 -359 127 -44 202
-82 279 -140 68 -51 108 -100 107 -131 0 -11 -16 -73 -35 -137 -53 -173 -70
-276 -65 -394 3 -55 9 -109 16 -120 10 -19 11 -19 21 8 6 15 36 120 66 233 74
275 79 283 115 187 19 -50 37 -115 116 -401 8 -28 20 -52 26 -52 8 0 9 50 6
173 -5 169 -6 174 -45 287 -22 63 -47 132 -56 152 l-17 37 61 80 c65 87 143
162 199 191 19 10 69 23 110 29 167 25 274 73 362 162 90 90 127 181 163 401
7 48 42 88 118 140 129 88 351 168 466 168 55 0 85 15 61 30 -8 5 -37 12 -65
15 -167 21 -467 -106 -725 -308 -36 -28 -204 -189 -375 -357 -326 -322 -403
-390 -439 -390 -12 0 -37 11 -55 25 -69 50 -309 285 -473 462 -223 240 -426
404 -603 484 -143 65 -310 96 -423 79z m790 -421 c12 -15 22 -54 27 -103 5
-46 15 -82 23 -87 21 -14 48 -10 54 6 4 8 12 15 19 15 23 0 184 -184 172 -197
-10 -10 -116 15 -172 41 -114 52 -186 153 -188 264 -2 59 14 97 36 89 6 -2 19
-14 29 -28z m1593 10 c15 -23 5 -120 -16 -169 -42 -97 -174 -191 -302 -215
-29 -6 -37 -4 -37 8 0 16 48 82 113 157 l37 44 29 -17 c24 -14 70 -23 72 -14
0 1 4 37 8 80 7 66 13 83 37 108 29 30 48 36 59 18z"/>
<path d="M1477 3076 c-82 -34 -163 -101 -220 -180 l-20 -28 24 7 c13 4 47 19
74 33 282 142 524 90 631 -136 37 -77 42 -155 16 -215 -13 -28 -31 -52 -46
-59 -19 -8 -26 -19 -26 -38 0 -34 102 -137 221 -222 90 -65 284 -164 388 -197
128 -42 122 -27 -35 90 -152 112 -232 197 -281 297 -33 66 -38 85 -41 166 -3
66 2 113 16 174 l19 82 -57 53 c-78 71 -152 114 -273 155 -89 31 -117 36 -217
39 -104 3 -120 1 -173 -21z"/>
<path d="M4676 3089 c-83 -20 -292 -132 -384 -206 -22 -18 -22 -19 -8 -98 34
-185 26 -281 -31 -387 -35 -65 -147 -179 -238 -243 -100 -69 -155 -115 -155
-127 0 -30 223 53 363 136 51 30 126 82 167 115 73 58 180 175 180 196 0 5
-15 17 -33 25 -49 23 -69 71 -64 155 5 87 39 159 108 226 134 130 310 144 516
41 139 -70 153 -66 73 21 -101 111 -210 158 -363 156 -51 -1 -110 -5 -131 -10z"/>
<path d="M2224 2613 c3 -10 8 -31 12 -48 11 -46 48 -116 94 -173 47 -60 230
-220 325 -284 79 -53 85 -68 126 -277 19 -93 57 -236 97 -356 56 -171 65 -211
66 -275 0 -41 -3 -90 -8 -109 -8 -29 -7 -33 10 -29 10 1 27 19 37 38 26 49 18
199 -17 343 -14 60 -31 152 -37 205 -14 114 -7 398 10 415 18 18 13 72 -8 91
-11 10 -64 29 -118 42 -221 55 -417 187 -535 361 -49 73 -64 88 -54 56z"/>
<path d="M4161 2557 c-109 -168 -321 -316 -524 -366 -143 -35 -180 -70 -141
-129 15 -22 19 -54 22 -170 5 -162 -8 -287 -45 -447 -13 -60 -27 -156 -30
-212 -5 -93 -4 -105 17 -137 22 -37 58 -51 45 -18 -14 38 -17 115 -6 173 7 33
41 150 76 258 37 115 70 241 79 302 33 206 42 221 202 342 146 111 272 245
317 337 66 137 59 176 -12 67z"/>
<path d="M3805 1791 c-123 -74 -195 -314 -211 -703 l-7 -158 32 0 c17 0 48 9
68 20 37 20 74 19 101 -3 21 -16 8 -56 -48 -157 -79 -140 -254 -504 -294 -611
-39 -107 -55 -179 -38 -179 6 0 44 64 85 143 89 169 244 438 300 521 22 33 76
102 119 153 l78 93 -31 63 c-26 51 -77 134 -111 182 -4 5 -26 -12 -51 -38 -79
-85 -102 -58 -100 118 1 197 47 400 114 509 36 59 34 72 -6 47z"/>
<path d="M2610 1791 c0 -5 16 -42 35 -82 19 -41 44 -109 55 -152 34 -135 47
-378 24 -459 -9 -30 -36 -20 -85 28 l-46 45 -66 -102 c-87 -132 -87 -143 -6
-240 118 -141 181 -240 368 -576 62 -112 117 -205 122 -209 16 -10 9 44 -17
127 -36 113 -115 284 -249 534 -63 117 -115 218 -117 225 -2 7 11 21 29 32 31
19 32 19 77 -1 25 -12 56 -21 69 -21 46 0 51 19 43 163 -17 326 -86 583 -180
665 -37 32 -56 40 -56 23z"/>
<path d="M2912 899 c-42 -8 -107 -52 -129 -85 -16 -26 -16 -28 4 -63 25 -43
105 -101 139 -101 30 0 30 4 -1 44 -30 39 -31 57 -7 79 27 24 55 21 84 -10 33
-35 48 -73 48 -124 0 -52 -19 -88 -75 -137 -25 -22 -45 -44 -45 -50 0 -5 27
-39 59 -75 84 -93 134 -162 190 -261 l49 -88 37 73 c47 95 136 220 202 286
l52 53 -42 51 c-23 28 -50 61 -60 73 -57 70 17 234 101 224 40 -4 41 -44 2
-92 -16 -21 -30 -43 -30 -47 0 -28 97 10 137 53 47 50 56 122 20 156 -26 25
-98 52 -136 52 -120 0 -222 -114 -246 -274 -6 -40 -3 -59 20 -116 34 -84 29
-115 -20 -136 -20 -8 -47 -11 -65 -8 -30 7 -80 55 -80 77 0 7 14 39 30 72 50
99 40 192 -30 280 -61 76 -134 110 -208 94z"/>
</g>
</svg>
