<?xml version="1.0" standalone="no"?>
<!DOCTYPE svg PUBLIC "-//W3C//DTD SVG 20010904//EN"
 "http://www.w3.org/TR/2001/REC-SVG-20010904/DTD/svg10.dtd">
<svg version="1.0" xmlns="http://www.w3.org/2000/svg"
 width="638.000000pt" height="640.000000pt" viewBox="0 0 638.000000 640.000000"
 preserveAspectRatio="xMidYMid meet">

<g transform="translate(0.000000,640.000000) scale(0.100000,-0.100000)"
fill="#000000" stroke="none">
<path d="M3160 6376 c0 -19 -24 -27 -62 -19 -22 4 -29 3 -24 -5 5 -9 -10 -12
-51 -13 l-58 -1 40 -13 c24 -8 32 -13 20 -14 -20 -2 -20 -2 -1 -16 23 -17 23
-16 -31 -44 -24 -12 -43 -23 -43 -25 0 -1 24 5 53 15 70 25 91 24 84 -1 -4
-17 -2 -18 15 -9 33 18 51 7 64 -41 10 -37 12 -40 13 -17 1 16 6 37 11 48 11
20 45 26 55 9 11 -18 23 -11 18 10 -7 25 16 26 77 5 60 -21 62 -18 7 11 -46
24 -54 43 -19 45 14 0 13 2 -3 8 -18 8 -16 10 15 19 34 10 33 10 -23 11 -41 1
-56 4 -51 12 5 9 -3 10 -29 5 -30 -6 -39 -3 -49 14 -15 23 -28 26 -28 6z"/>
<path d="M3630 6358 c0 -6 -13 -8 -35 -4 -29 6 -34 4 -29 -9 3 -8 11 -15 17
-15 22 0 -9 -19 -38 -23 -16 -2 2 -5 41 -6 76 -1 90 -7 72 -28 -9 -11 -6 -12
17 -3 54 20 96 -1 129 -65 l16 -30 0 44 c0 42 1 43 28 39 15 -3 36 -9 46 -13
15 -6 17 -5 11 5 -6 10 0 11 31 6 80 -15 88 -15 52 -3 -41 13 -59 27 -37 27
30 1 -26 30 -57 30 -18 0 -36 5 -39 10 -3 6 -19 10 -34 10 -16 0 -46 6 -67 14
-22 7 -45 11 -52 9 -7 -3 -26 0 -42 6 -21 7 -30 7 -30 -1z"/>
<path d="M2686 6353 c-2 -2 -21 -5 -42 -7 -21 -2 -68 -12 -104 -21 -36 -9 -82
-20 -103 -24 -40 -9 -52 -16 -52 -33 0 -6 -16 -17 -35 -25 -35 -13 -24 -13 50
2 32 7 34 6 20 -10 -14 -17 -14 -17 18 -1 18 9 43 16 55 14 19 -3 22 -9 19
-38 l-3 -35 20 32 c31 49 64 67 111 59 31 -5 38 -3 34 8 -6 17 62 29 114 21
28 -5 33 -4 22 4 -8 6 -28 11 -45 11 -27 1 -28 2 -12 14 9 7 17 16 17 19 0 5
-79 15 -84 10z"/>
<path d="M2800 6176 c0 -2 8 -10 18 -17 15 -13 16 -12 3 4 -13 16 -21 21 -21
13z"/>
<path d="M3459 6133 c-13 -16 -12 -17 4 -4 9 7 17 15 17 17 0 8 -8 3 -21 -13z"/>
<path d="M3157 6110 c-4 -14 -7 -33 -7 -43 0 -31 -31 -86 -51 -92 -12 -4 -37
3 -64 18 l-44 25 15 -24 c9 -13 14 -31 10 -39 -7 -20 -44 -19 -167 5 -57 11
-104 18 -106 17 -1 -2 35 -15 81 -30 46 -15 91 -36 100 -46 17 -18 17 -20 -3
-30 -11 -6 -35 -11 -53 -11 -25 0 -29 -3 -18 -10 8 -5 27 -10 41 -10 33 0 55
-23 37 -38 -19 -14 -123 -65 -191 -92 -84 -33 -65 -33 34 0 99 33 199 53 223
44 22 -9 20 -23 -10 -67 l-25 -38 47 36 c89 68 129 30 141 -132 l7 -88 12 97
c20 155 54 191 128 135 52 -39 55 -39 33 2 -32 58 -18 68 70 52 38 -6 96 -21
131 -32 94 -31 85 -17 -18 25 -147 62 -163 86 -65 104 40 8 44 10 18 11 -40 1
-83 17 -83 30 0 13 47 37 130 68 67 24 63 24 -83 -2 -118 -22 -149 -10 -113
41 14 19 11 19 -35 -4 -41 -20 -52 -22 -65 -12 -24 21 -36 50 -43 104 -6 42
-8 47 -14 26z"/>
<path d="M2905 6090 c10 -11 20 -20 23 -20 3 0 -3 9 -13 20 -10 11 -20 20 -23
20 -3 0 3 -9 13 -20z"/>
<path d="M3404 6088 l-19 -23 23 19 c21 18 27 26 19 26 -2 0 -12 -10 -23 -22z"/>
<path d="M4495 5911 c29 -84 17 -104 -39 -66 -46 31 -51 31 -31 1 27 -41 0
-40 -115 7 -61 25 -110 43 -110 41 0 -2 24 -16 53 -30 67 -34 137 -82 137 -94
0 -6 -19 -10 -42 -11 l-43 0 39 -15 c102 -37 91 -58 -54 -111 -36 -13 -51 -21
-35 -19 179 28 192 29 221 14 25 -12 29 -19 27 -51 l-2 -37 29 21 c27 21 30
21 54 5 30 -19 66 -85 92 -168 9 -32 19 -56 21 -55 1 2 -4 38 -12 81 -17 90
-18 96 -6 115 11 17 42 2 89 -42 38 -37 41 -33 7 13 -29 39 -31 50 -10 50 17
0 101 -41 175 -86 59 -36 51 -28 -45 43 -122 91 -139 112 -87 114 l27 1 -31
13 c-17 8 -36 21 -43 29 -12 14 -9 18 22 31 20 8 47 16 59 16 13 1 -15 5 -61
10 -87 8 -121 25 -121 61 0 16 -3 17 -21 7 -31 -16 -60 3 -100 68 -54 86 -61
93 -44 44z"/>
<path d="M1816 5886 c-56 -96 -101 -127 -134 -94 -9 9 -12 6 -12 -14 0 -42
-33 -58 -120 -59 -76 0 -76 -2 -2 -29 42 -16 37 -29 -19 -58 -31 -16 -36 -21
-17 -17 15 3 30 0 33 -6 10 -15 -16 -41 -117 -115 -92 -69 -118 -96 -45 -46
56 38 147 88 175 97 30 9 29 -9 -4 -52 l-26 -35 47 36 c74 57 91 48 76 -41 -5
-32 -12 -74 -16 -93 -3 -22 4 -11 18 30 59 162 98 200 153 149 l23 -22 -6 37
c-9 55 7 66 91 66 39 0 98 -7 131 -14 83 -20 82 -12 -2 14 -38 11 -84 30 -102
41 -32 19 -33 21 -16 39 10 11 39 26 64 35 l46 14 -47 -5 c-26 -3 -49 -1 -52
5 -8 12 58 62 127 98 27 13 47 27 44 29 -3 3 -23 -4 -46 -15 -70 -36 -144 -62
-159 -56 -12 4 -12 9 3 31 18 28 12 26 -38 -10 -42 -31 -55 -10 -35 54 9 27
15 50 13 50 -2 0 -15 -20 -29 -44z"/>
<path d="M3738 5833 c7 -3 16 -2 19 1 4 3 -2 6 -13 5 -11 0 -14 -3 -6 -6z"/>
<path d="M2538 5823 c7 -3 16 -2 19 1 4 3 -2 6 -13 5 -11 0 -14 -3 -6 -6z"/>
<path d="M2405 5810 c-3 -5 -1 -10 4 -10 6 0 11 5 11 10 0 6 -2 10 -4 10 -3 0
-8 -4 -11 -10z"/>
<path d="M3620 5690 c8 -5 20 -10 25 -10 6 0 3 5 -5 10 -8 5 -19 10 -25 10 -5
0 -3 -5 5 -10z"/>
<path d="M2804 5478 c-97 -114 -261 -315 -270 -331 -13 -23 24 19 146 168 68
83 144 174 168 203 24 28 42 52 40 52 -3 0 -41 -42 -84 -92z"/>
<path d="M3484 5495 c85 -103 84 -101 180 -220 98 -121 136 -162 91 -100 -46
64 -290 359 -311 375 -10 8 8 -16 40 -55z"/>
<path d="M3951 5534 c0 -11 3 -14 6 -6 3 7 2 16 -1 19 -3 4 -6 -2 -5 -13z"/>
<path d="M5388 5450 c54 -58 63 -74 35 -63 -9 4 1 -10 23 -30 44 -40 40 -52
-19 -74 -31 -11 -31 -11 24 -12 64 -1 103 -24 114 -68 4 -18 9 -23 14 -14 10
16 52 -33 87 -100 33 -66 39 -62 9 6 -24 52 -24 55 -5 52 11 -2 23 -7 27 -12
5 -4 1 -5 -7 0 -9 5 -12 5 -7 -1 5 -5 12 -9 15 -9 4 0 14 -4 22 -10 13 -8 13
-7 0 11 -8 10 -23 29 -33 41 -11 12 -16 26 -13 31 3 6 -5 19 -19 30 -14 11
-25 24 -25 29 0 13 -172 187 -187 189 -7 1 -9 -5 -6 -14 7 -18 4 -16 -72 48
-16 13 -6 0 23 -30z"/>
<path d="M4432 5433 c-75 -120 -183 -306 -179 -309 2 -2 45 67 97 154 51 86
100 167 108 180 8 12 12 22 9 22 -3 0 -18 -21 -35 -47z"/>
<path d="M962 5439 c-18 -16 -38 -27 -44 -23 -7 5 -8 2 -3 -7 6 -11 5 -11 -5
-2 -10 10 -30 -6 -96 -75 -46 -48 -84 -92 -84 -98 0 -7 -11 -19 -25 -28 -14
-9 -23 -22 -19 -27 3 -6 -4 -21 -17 -35 -12 -13 -17 -24 -10 -24 7 0 9 -5 5
-12 -4 -7 2 -4 14 6 27 23 27 20 2 -38 -24 -58 -17 -60 11 -3 34 68 70 111 80
96 5 -9 10 -5 14 13 12 47 49 72 107 72 52 0 52 0 21 13 -47 19 -49 31 -12 70
19 20 28 33 22 29 -27 -15 -11 10 34 56 53 54 56 63 5 17z"/>
<path d="M1888 5410 c16 -30 39 -71 50 -90 92 -163 114 -200 118 -200 6 0 -1
13 -98 185 -44 77 -84 145 -90 150 -6 6 3 -15 20 -45z"/>
<path d="M3991 5158 c-1 -65 -6 -128 -13 -143 -17 -37 -51 -32 -104 17 l-46
42 23 -47 c55 -113 -25 -106 -323 27 -57 25 -46 10 15 -20 135 -69 247 -154
247 -190 0 -16 -60 -34 -115 -35 -37 0 -35 -2 28 -18 83 -21 105 -40 90 -74
-13 -28 -106 -92 -243 -167 -108 -59 -104 -59 32 -1 115 49 243 84 280 76 43
-10 48 -65 11 -140 -12 -24 -7 -21 26 17 46 52 71 64 99 49 38 -20 65 -111
110 -376 4 -22 6 39 4 135 -4 198 2 230 45 230 20 0 41 -14 79 -55 l53 -55
-30 60 c-36 72 -35 94 6 98 29 3 184 -67 295 -134 63 -38 40 -18 -62 55 -114
81 -198 158 -198 182 0 23 35 39 88 40 35 0 33 1 -25 20 -37 12 -67 28 -73 39
-16 31 39 83 150 140 52 27 93 50 90 50 -3 0 -45 -13 -93 -30 -204 -69 -279
-55 -244 48 l15 42 -39 -35 c-22 -19 -46 -35 -54 -35 -40 0 -74 70 -104 215
l-19 90 -1 -117z"/>
<path d="M2306 5218 c-13 -81 -48 -198 -68 -223 -29 -37 -64 -32 -105 12 l-34
38 16 -45 c29 -83 3 -109 -95 -96 -27 4 -82 17 -122 31 -40 13 -82 26 -93 30
-11 4 16 -13 60 -37 192 -103 207 -145 71 -187 l-61 -19 55 -1 c55 -1 80 -13
80 -37 0 -24 -54 -76 -169 -161 -64 -48 -120 -91 -126 -96 -11 -11 55 26 95
54 37 25 160 84 204 99 32 10 40 10 52 -2 13 -12 12 -20 -1 -58 -9 -25 -23
-56 -31 -70 -8 -14 1 -8 21 14 39 44 83 76 103 76 7 0 20 -17 29 -37 13 -31
15 -66 10 -198 l-5 -160 14 90 c19 122 50 241 72 279 29 50 65 47 117 -8 l43
-46 -21 55 c-16 45 -18 60 -9 80 10 21 18 25 56 25 51 0 174 -37 273 -81 36
-16 67 -28 69 -26 2 2 -48 32 -111 67 -63 34 -133 80 -156 101 -40 36 -41 40
-27 61 8 13 33 28 54 34 21 7 55 16 74 22 34 10 34 10 -20 11 -172 4 -135 61
146 229 48 29 33 24 -82 -27 -223 -97 -280 -92 -223 21 l22 43 -51 -47 c-28
-27 -58 -48 -66 -48 -9 0 -23 12 -32 26 -14 21 -17 48 -16 140 0 63 -1 114 -2
114 -2 0 -6 -19 -10 -42z"/>
<path d="M4970 5256 c0 -2 8 -10 18 -17 15 -13 16 -12 3 4 -13 16 -21 21 -21
13z"/>
<path d="M3145 5220 c3 -5 8 -10 11 -10 2 0 4 5 4 10 0 6 -5 10 -11 10 -5 0
-7 -4 -4 -10z"/>
<path d="M3154 5050 c0 -80 2 -112 3 -72 2 39 2 105 0 145 -1 39 -3 7 -3 -73z"/>
<path d="M1285 5160 c-3 -5 -1 -10 4 -10 6 0 11 5 11 10 0 6 -2 10 -4 10 -3 0
-8 -4 -11 -10z"/>
<path d="M1209 5053 c-13 -16 -12 -17 4 -4 9 7 17 15 17 17 0 8 -8 3 -21 -13z"/>
<path d="M5150 5016 c0 -2 8 -10 18 -17 15 -13 16 -12 3 4 -13 16 -21 21 -21
13z"/>
<path d="M5351 4975 c0 -5 6 -39 14 -75 18 -80 19 -136 3 -146 -7 -5 -27 10
-50 37 l-39 44 22 -49 c15 -34 18 -51 10 -59 -15 -15 -46 1 -159 84 l-97 71
92 -86 c92 -86 133 -139 133 -170 0 -12 -11 -16 -47 -17 -47 -1 -47 -1 -18
-11 53 -19 85 -47 85 -75 0 -30 -54 -84 -132 -134 -26 -17 -48 -33 -48 -34 0
-2 35 12 78 32 42 20 95 38 117 41 54 6 70 -13 67 -82 l-2 -51 20 33 c11 17
24 32 28 32 30 0 69 -91 102 -240 11 -47 17 -67 15 -45 -13 100 -17 252 -7
259 6 3 27 -13 47 -36 21 -24 35 -36 32 -28 -20 55 -29 91 -23 97 11 12 69
-23 136 -83 69 -62 62 -50 -34 56 -72 81 -92 116 -75 136 6 8 21 14 33 14 17
1 13 5 -15 20 -20 11 -39 26 -43 35 -9 25 10 61 53 96 23 18 39 34 38 36 -2 2
-20 -4 -40 -12 -48 -20 -101 -19 -118 2 -8 9 -14 35 -14 59 0 42 0 42 -13 18
-29 -55 -66 -10 -118 146 -18 52 -33 91 -33 85z"/>
<path d="M955 4878 c-31 -91 -62 -159 -79 -170 -6 -5 -19 1 -28 13 l-18 21 0
-25 c0 -43 -18 -76 -44 -83 -55 -13 -206 64 -206 106 0 11 12 26 28 34 25 14
26 15 5 16 -35 0 -28 20 29 73 l52 49 -52 -33 c-56 -35 -71 -34 -51 3 l12 23
-23 -20 c-16 -14 -22 -16 -18 -5 25 72 19 81 -13 18 -27 -54 -28 -55 -38 -39
-6 10 -11 5 -16 -18 -7 -32 -37 -57 -55 -46 -13 8 -13 -1 1 -27 9 -17 6 -25
-16 -48 -22 -23 -24 -29 -11 -32 14 -2 12 -11 -15 -53 l-31 -50 32 30 c31 29
33 29 27 7 -5 -23 -5 -23 14 -6 19 17 19 16 20 -37 l1 -54 13 53 c16 67 30 83
49 56 13 -18 14 -17 13 16 -2 31 1 35 25 38 60 7 193 -94 186 -141 -2 -12 -18
-32 -37 -44 -19 -13 -30 -23 -24 -23 5 0 17 -6 27 -13 17 -13 17 -15 1 -46 -9
-18 -46 -67 -83 -109 -58 -67 -61 -73 -24 -42 117 96 142 108 142 70 0 -12 -7
-35 -16 -51 -20 -40 -12 -48 11 -12 23 34 47 53 59 46 8 -5 4 -110 -9 -233 -4
-36 -2 -33 10 19 26 113 55 199 74 222 19 23 19 24 40 5 12 -11 21 -25 21 -32
0 -7 4 -15 8 -18 5 -3 7 19 4 49 -6 71 8 89 63 83 22 -3 75 -21 118 -41 42
-20 77 -34 77 -32 0 1 -22 17 -50 35 -27 17 -68 49 -90 71 -57 55 -53 85 15
119 l50 25 -42 3 c-31 2 -43 8 -43 19 0 25 65 107 143 179 80 74 79 74 -47
-20 -49 -36 -97 -66 -107 -66 -23 0 -25 33 -4 70 25 44 16 45 -16 2 -32 -44
-58 -54 -60 -24 -2 43 4 95 16 143 22 83 10 69 -20 -23z"/>
<path d="M5810 4937 c15 -41 12 -55 -6 -32 -16 20 -16 20 -9 -2 8 -28 -7 -30
-43 -5 -53 37 -56 34 -9 -7 49 -44 60 -71 30 -71 -14 -1 -12 -5 10 -21 36 -27
34 -41 -10 -80 -21 -18 -29 -29 -18 -25 78 32 76 32 91 12 8 -12 11 -29 8 -40
-6 -19 -5 -19 10 -7 22 18 30 9 50 -54 l16 -50 -4 42 c-5 51 1 59 27 36 19
-17 20 -17 8 5 -17 32 0 27 33 -10 l28 -33 -17 30 c-10 17 -25 41 -34 54 -12
20 -13 25 -2 29 9 3 4 13 -15 33 -24 25 -27 32 -16 49 16 27 16 28 -15 32 -20
2 -29 11 -38 38 -8 22 -14 30 -17 20 -4 -11 -11 -5 -24 18 -11 19 -25 41 -32
50 -10 14 -10 12 -2 -11z"/>
<path d="M3003 4813 c93 -2 241 -2 330 0 89 1 14 3 -168 3 -181 0 -254 -2
-162 -3z"/>
<path d="M1738 4703 c7 -3 16 -2 19 1 4 3 -2 6 -13 5 -11 0 -14 -3 -6 -6z"/>
<path d="M4603 4703 c9 -2 25 -2 35 0 9 3 1 5 -18 5 -19 0 -27 -2 -17 -5z"/>
<path d="M1668 4693 c6 -2 18 -2 25 0 6 3 1 5 -13 5 -14 0 -19 -2 -12 -5z"/>
<path d="M4673 4693 c9 -2 25 -2 35 0 9 3 1 5 -18 5 -19 0 -27 -2 -17 -5z"/>
<path d="M1608 4683 c6 -2 18 -2 25 0 6 3 1 5 -13 5 -14 0 -19 -2 -12 -5z"/>
<path d="M4743 4683 c9 -2 23 -2 30 0 6 3 -1 5 -18 5 -16 0 -22 -2 -12 -5z"/>
<path d="M1548 4673 c7 -3 16 -2 19 1 4 3 -2 6 -13 5 -11 0 -14 -3 -6 -6z"/>
<path d="M4800 4676 c0 -9 40 -13 46 -5 3 5 -6 9 -20 9 -14 0 -26 -2 -26 -4z"/>
<path d="M1478 4663 c7 -3 16 -2 19 1 4 3 -2 6 -13 5 -11 0 -14 -3 -6 -6z"/>
<path d="M4873 4663 c9 -2 23 -2 30 0 6 3 -1 5 -18 5 -16 0 -22 -2 -12 -5z"/>
<path d="M1418 4653 c6 -2 18 -2 25 0 6 3 1 5 -13 5 -14 0 -19 -2 -12 -5z"/>
<path d="M4945 4650 c17 -4 41 -8 55 -8 22 0 22 1 -5 8 -16 4 -41 8 -55 8 -22
0 -22 -1 5 -8z"/>
<path d="M1368 4643 c6 -2 18 -2 25 0 6 3 1 5 -13 5 -14 0 -19 -2 -12 -5z"/>
<path d="M1318 4633 c6 -2 18 -2 25 0 6 3 1 5 -13 5 -14 0 -19 -2 -12 -5z"/>
<path d="M5038 4633 c7 -3 16 -2 19 1 4 3 -2 6 -13 5 -11 0 -14 -3 -6 -6z"/>
<path d="M1278 4623 c7 -3 16 -2 19 1 4 3 -2 6 -13 5 -11 0 -14 -3 -6 -6z"/>
<path d="M3144 4465 c0 -55 1 -76 3 -47 2 29 2 74 0 100 -2 26 -3 2 -3 -53z"/>
<path d="M6034 4460 c53 -90 72 -133 58 -137 -9 -4 -7 -12 8 -30 27 -35 25
-83 -5 -128 -31 -44 -28 -55 5 -20 40 42 70 29 70 -31 0 -15 5 -22 13 -18 9 3
20 -16 35 -58 19 -56 22 -47 5 21 -5 18 -3 22 7 16 10 -6 12 -4 6 10 -5 15 -4
16 9 5 12 -10 11 -2 -5 34 -11 27 -18 51 -15 56 3 4 -4 28 -15 51 -11 24 -20
54 -20 67 0 12 -4 22 -10 22 -5 0 -13 18 -16 40 -4 22 -11 37 -15 34 -5 -3
-18 14 -29 38 -18 40 -24 38 -23 -9 1 -23 -16 -14 -43 25 -42 57 -50 62 -20
12z"/>
<path d="M310 4433 c-29 -40 -35 -44 -40 -27 -4 10 -6 26 -3 34 2 8 -4 -1 -13
-20 -9 -19 -21 -38 -26 -41 -11 -7 -25 -43 -59 -149 -12 -36 -28 -85 -37 -110
-24 -64 -25 -67 -13 -50 8 11 11 12 11 2 0 -7 5 -10 11 -6 8 4 9 -1 4 -17 -15
-53 -16 -59 -11 -59 2 0 12 23 21 51 11 31 20 47 25 39 4 -7 10 6 14 30 8 50
29 60 62 30 29 -28 30 -25 4 25 -26 52 -25 77 5 113 21 25 23 31 10 34 -14 2
-12 12 12 58 16 30 37 67 47 83 31 45 12 30 -24 -20z"/>
<path d="M550 4440 c-8 -5 -10 -10 -5 -10 6 0 17 5 25 10 8 5 11 10 5 10 -5 0
-17 -5 -25 -10z"/>
<path d="M470 4405 c-25 -13 -40 -24 -35 -24 6 0 30 11 55 24 25 13 41 24 35
24 -5 0 -30 -11 -55 -24z"/>
<path d="M5870 4416 c28 -17 50 -21 35 -7 -6 5 -21 12 -35 15 l-25 7 25 -15z"/>
<path d="M3757 4288 c-30 -51 -68 -117 -83 -146 -22 -39 -34 -51 -47 -48 -14
3 -16 1 -7 -9 8 -10 -8 -45 -69 -149 -88 -148 -114 -196 -107 -196 4 0 98 158
170 283 20 35 32 47 43 43 12 -5 13 -3 5 7 -9 10 0 32 36 93 67 111 124 214
118 214 -2 0 -29 -42 -59 -92z"/>
<path d="M2503 4335 c32 -64 329 -581 339 -590 16 -15 -17 47 -99 188 -41 71
-72 135 -69 143 3 7 0 13 -6 11 -6 -1 -44 57 -85 128 -68 119 -116 191 -80
120z"/>
<path d="M3140 4344 c0 -8 5 -12 10 -9 6 4 8 11 5 16 -9 14 -15 11 -15 -7z"/>
<path d="M1926 4281 c-47 -74 -264 -449 -290 -500 -49 -95 -18 -52 50 72 37
67 114 200 170 295 57 94 101 172 98 172 -2 0 -15 -17 -28 -39z"/>
<path d="M4383 4273 c50 -87 140 -233 144 -233 2 0 -4 15 -15 33 -10 17 -43
71 -71 120 -29 48 -55 87 -57 87 -3 0 -3 -3 -1 -7z"/>
<path d="M3300 4266 c0 -3 9 -10 20 -16 11 -6 20 -8 20 -6 0 3 -9 10 -20 16
-11 6 -20 8 -20 6z"/>
<path d="M4875 4220 c-3 -6 1 -7 9 -4 18 7 21 14 7 14 -6 0 -13 -4 -16 -10z"/>
<path d="M4814 4184 c-18 -14 -18 -15 4 -4 12 6 22 13 22 15 0 8 -5 6 -26 -11z"/>
<path d="M3450 4186 c0 -3 9 -10 20 -16 11 -6 20 -8 20 -6 0 3 -9 10 -20 16
-11 6 -20 8 -20 6z"/>
<path d="M1500 4176 c0 -3 9 -10 20 -16 11 -6 20 -8 20 -6 0 3 -9 10 -20 16
-11 6 -20 8 -20 6z"/>
<path d="M4764 4154 c-18 -14 -18 -15 4 -4 12 6 22 13 22 15 0 8 -5 6 -26 -11z"/>
<path d="M5321 4139 c-6 -18 -9 -34 -7 -36 2 -2 9 10 15 28 6 18 9 34 7 36 -2
2 -9 -10 -15 -28z"/>
<path d="M3500 4155 c0 -2 23 -16 50 -30 28 -14 50 -23 50 -20 0 2 -22 16 -50
30 -27 14 -50 23 -50 20z"/>
<path d="M4674 4104 c-18 -14 -18 -15 4 -4 12 6 22 13 22 15 0 8 -5 6 -26 -11z"/>
<path d="M1620 4106 c0 -3 9 -10 20 -16 11 -6 20 -8 20 -6 0 3 -9 10 -20 16
-11 6 -20 8 -20 6z"/>
<path d="M4624 4074 c-18 -14 -18 -15 4 -4 12 6 22 13 22 15 0 8 -5 6 -26 -11z"/>
<path d="M1670 4076 c0 -3 9 -10 20 -16 11 -6 20 -8 20 -6 0 3 -9 10 -20 16
-11 6 -20 8 -20 6z"/>
<path d="M3685 4053 c6 -6 42 -27 80 -48 39 -21 66 -34 60 -28 -5 6 -41 27
-80 48 -38 21 -65 34 -60 28z"/>
<path d="M1036 4030 c3 -14 11 -32 16 -40 6 -10 7 -7 2 10 -3 14 -11 32 -16
40 -6 10 -7 7 -2 -10z"/>
<path d="M4528 4024 c-4 -3 1 -13 10 -23 10 -9 50 -76 91 -149 41 -72 76 -130
78 -128 4 4 1 10 -102 189 -37 64 -68 117 -69 117 -2 0 -5 -3 -8 -6z"/>
<path d="M5267 3988 c-9 -23 -15 -43 -13 -45 2 -2 11 15 20 38 9 23 15 43 13
45 -2 2 -11 -15 -20 -38z"/>
<path d="M1790 4006 c0 -3 9 -10 20 -16 11 -6 20 -8 20 -6 0 3 -9 10 -20 16
-11 6 -20 8 -20 6z"/>
<path d="M3138 3884 c-14 -233 -45 -355 -95 -362 -24 -4 -74 36 -116 93 -16
22 -26 31 -22 20 26 -66 44 -123 45 -141 0 -26 -30 -54 -59 -54 -41 0 -170 49
-294 112 -67 35 -126 65 -132 67 -5 2 52 -37 127 -88 168 -112 251 -188 246
-228 -4 -35 -52 -61 -130 -70 l-53 -7 69 -12 c136 -26 150 -63 57 -154 -33
-32 -113 -93 -178 -136 -65 -43 -122 -82 -128 -86 -5 -5 53 22 130 61 141 70
200 94 267 106 29 6 40 3 57 -14 25 -25 22 -65 -10 -140 -26 -60 -25 -60 21
-2 42 53 89 85 112 76 42 -16 73 -147 85 -363 l8 -127 7 120 c14 229 39 344
79 366 28 14 72 -13 116 -71 40 -54 54 -59 29 -12 -27 52 -39 117 -27 141 26
49 147 17 378 -100 65 -32 110 -53 99 -47 -10 7 -72 49 -139 92 -66 44 -147
105 -179 137 -92 90 -77 127 58 153 l69 12 -54 8 c-67 9 -119 30 -128 51 -18
48 77 140 266 260 50 32 91 59 91 61 0 2 -44 -18 -98 -45 -122 -61 -203 -95
-270 -111 -45 -10 -56 -10 -77 4 -35 23 -31 53 20 181 4 11 -8 -1 -28 -27 -40
-50 -86 -88 -109 -88 -54 0 -86 144 -101 445 -1 28 -5 -9 -9 -81z"/>
<path d="M4484 3994 c-18 -14 -18 -15 4 -4 12 6 22 13 22 15 0 8 -5 6 -26 -11z"/>
<path d="M440 3958 c24 -27 45 -48 47 -48 8 0 0 9 -44 50 l-48 45 45 -47z"/>
<path d="M3840 3966 c0 -3 14 -12 30 -21 17 -9 30 -13 30 -11 0 3 -13 12 -30
21 -16 9 -30 13 -30 11z"/>
<path d="M3910 3926 c0 -3 9 -10 20 -16 11 -6 20 -8 20 -6 0 3 -9 10 -20 16
-11 6 -20 8 -20 6z"/>
<path d="M3960 3896 c0 -3 9 -10 20 -16 11 -6 20 -8 20 -6 0 3 -9 10 -20 16
-11 6 -20 8 -20 6z"/>
<path d="M5226 3885 c-9 -26 -7 -32 5 -12 6 10 9 21 6 23 -2 3 -7 -2 -11 -11z"/>
<path d="M5790 3869 c0 -5 5 -7 10 -4 6 3 10 8 10 11 0 2 -4 4 -10 4 -5 0 -10
-5 -10 -11z"/>
<path d="M560 3845 c13 -14 26 -25 28 -25 3 0 -5 11 -18 25 -13 14 -26 25 -28
25 -3 0 5 -11 18 -25z"/>
<path d="M2050 3856 c0 -3 9 -10 20 -16 11 -6 20 -8 20 -6 0 3 -9 10 -20 16
-11 6 -20 8 -20 6z"/>
<path d="M5201 3819 c-6 -18 -9 -34 -7 -36 2 -2 9 10 15 28 6 18 9 34 7 36 -2
2 -9 -10 -15 -28z"/>
<path d="M4928 3700 c-6 -158 -23 -224 -55 -218 -15 3 -55 49 -90 104 -7 10
-3 -8 7 -40 36 -109 22 -148 -47 -126 -38 12 -154 78 -268 152 -36 24 -46 28
-25 11 215 -174 280 -242 280 -292 0 -32 -26 -49 -86 -58 -46 -6 -43 -23 4
-23 13 0 36 -7 52 -15 73 -38 7 -133 -207 -299 -35 -27 -63 -50 -63 -52 0 -2
46 26 102 63 115 74 219 126 244 121 41 -8 41 -62 0 -173 -4 -11 5 0 22 25 42
64 69 87 90 74 26 -17 33 -59 40 -224 l6 -155 12 115 c24 219 47 292 87 277
10 -4 31 -28 48 -54 17 -26 28 -39 25 -28 -30 87 -27 155 8 155 32 0 103 -33
184 -86 l87 -56 -104 98 c-59 56 -110 114 -118 133 -15 34 -14 36 12 58 14 13
37 23 50 23 40 0 37 17 -3 24 -21 3 -47 15 -57 26 -15 17 -16 24 -6 48 14 33
79 104 166 181 l60 53 -63 -42 c-90 -59 -187 -103 -212 -95 -29 9 -34 46 -16
107 17 60 14 73 -7 31 -8 -15 -27 -39 -42 -53 l-27 -25 -18 23 c-22 27 -36 88
-53 242 l-13 115 -6 -145z"/>
<path d="M1110 3825 c0 -5 5 -17 10 -25 5 -8 10 -10 10 -5 0 6 -5 17 -10 25
-5 8 -10 11 -10 5z"/>
<path d="M1372 3721 c-16 -145 -29 -206 -50 -231 -23 -29 -47 -18 -78 36 -14
24 -27 44 -29 44 -2 0 3 -21 11 -47 24 -79 15 -123 -26 -123 -24 0 -117 47
-184 91 l-61 41 87 -81 c99 -93 133 -140 124 -175 -6 -23 -38 -42 -86 -49 -27
-4 -17 -11 32 -21 30 -7 58 -31 58 -50 0 -27 -66 -109 -141 -176 -44 -38 -78
-70 -76 -70 3 0 35 21 73 46 164 110 230 110 207 1 -6 -29 -14 -61 -18 -72 -4
-11 7 2 24 28 35 53 54 65 76 47 21 -17 32 -66 54 -231 l19 -144 1 126 c1 135
14 226 34 246 18 18 50 -6 88 -65 18 -29 27 -37 23 -22 -37 122 -35 153 9 158
32 4 123 -38 241 -112 48 -31 91 -56 94 -56 3 0 -35 30 -84 67 -111 84 -201
172 -210 207 -9 38 17 63 85 77 l56 13 -48 7 c-57 9 -97 33 -97 58 0 41 89
133 233 240 59 45 78 67 30 35 -142 -93 -275 -159 -309 -152 -26 4 -30 66 -10
126 9 25 16 48 16 50 0 3 -17 -19 -38 -49 -75 -108 -102 -71 -111 156 l-6 140
-13 -114z"/>
<path d="M625 3790 c10 -11 20 -20 23 -20 3 0 -3 9 -13 20 -10 11 -20 20 -23
20 -3 0 3 -9 13 -20z"/>
<path d="M2160 3778 c0 -12 3 -17 8 -12 4 5 11 12 15 15 5 3 2 9 -7 12 -12 5
-16 0 -16 -15z"/>
<path d="M4120 3790 c0 -5 4 -10 9 -10 6 0 13 5 16 10 3 6 -1 10 -9 10 -9 0
-16 -4 -16 -10z"/>
<path d="M1130 3775 c0 -5 5 -17 10 -25 5 -8 10 -10 10 -5 0 6 -5 17 -10 25
-5 8 -10 11 -10 5z"/>
<path d="M5172 3745 c-17 -37 -14 -45 4 -12 9 16 14 31 11 33 -2 2 -9 -7 -15
-21z"/>
<path d="M670 3756 c0 -2 8 -10 18 -17 15 -13 16 -12 3 4 -13 16 -21 21 -21
13z"/>
<path d="M5570 3690 c-9 -6 -10 -10 -3 -10 6 0 15 5 18 10 8 12 4 12 -15 0z"/>
<path d="M753 3675 c0 -8 4 -12 9 -9 5 3 6 10 3 15 -9 13 -12 11 -12 -6z"/>
<path d="M318 3544 c-18 -130 -28 -151 -53 -108 l-16 29 6 -48 c9 -68 -15 -75
-68 -18 -21 23 -38 39 -36 34 2 -4 19 -36 37 -70 37 -72 41 -116 13 -135 -20
-14 -20 -14 0 -26 29 -18 24 -62 -16 -139 l-36 -68 37 38 c55 56 68 51 64 -23
l-1 -35 16 23 c25 35 34 17 49 -94 l12 -99 6 93 c7 112 18 130 47 76 l20 -39
-6 52 c-3 28 -3 59 1 68 5 14 9 14 33 1 16 -8 57 -40 93 -73 69 -61 66 -53
-13 37 -26 30 -57 74 -68 97 -19 40 -20 45 -5 67 8 14 26 26 38 29 21 3 21 5
-9 16 -17 7 -34 19 -37 28 -10 25 28 95 90 169 56 67 57 68 16 34 -138 -113
-147 -115 -139 -27 l5 62 -20 -39 c-31 -60 -43 -34 -41 94 0 61 0 110 -2 110
-1 0 -9 -52 -17 -116z"/>
<path d="M6014 3560 c0 -60 -4 -113 -11 -124 -10 -18 -13 -16 -32 22 -26 50
-33 54 -20 10 12 -42 12 -85 -1 -93 -15 -9 -59 18 -122 75 -32 28 -58 49 -58
46 0 -3 25 -34 56 -68 99 -111 116 -171 56 -197 l-33 -15 33 -10 c65 -21 44
-90 -64 -211 l-53 -60 55 46 c76 63 101 79 124 79 17 0 18 -5 13 -62 l-6 -63
17 34 c33 65 48 36 52 -99 l3 -75 8 75 c4 41 13 93 20 115 l11 40 23 -29 22
-28 -5 51 c-4 44 -2 51 14 51 9 0 38 -21 62 -47 l45 -48 -32 55 c-68 116 -75
155 -32 176 23 12 23 12 2 19 -39 12 -37 51 7 136 l40 79 -40 -40 c-21 -23
-45 -40 -51 -37 -7 2 -13 23 -15 46 -3 39 -5 41 -17 25 -21 -29 -34 -7 -46 72
-24 159 -26 163 -25 54z"/>
<path d="M4144 3360 c0 -52 1 -74 3 -47 2 26 2 68 0 95 -2 26 -3 4 -3 -48z"/>
<path d="M883 3223 c9 -2 23 -2 30 0 6 3 -1 5 -18 5 -16 0 -22 -2 -12 -5z"/>
<path d="M1832 3225 c7 -7 710 -7 716 0 3 3 -158 5 -358 5 -200 0 -361 -2
-358 -5z"/>
<path d="M3742 3225 c6 -7 729 -7 736 0 3 3 -163 5 -368 5 -205 0 -371 -2
-368 -5z"/>
<path d="M5397 3223 c18 -2 50 -2 70 0 21 2 7 4 -32 4 -38 0 -55 -2 -38 -4z"/>
<path d="M98 3213 c6 -2 18 -2 25 0 6 3 1 5 -13 5 -14 0 -19 -2 -12 -5z"/>
<path d="M5673 3213 c15 -2 37 -2 50 0 12 2 0 4 -28 4 -27 0 -38 -2 -22 -4z"/>
<path d="M6238 3213 c6 -2 18 -2 25 0 6 3 1 5 -13 5 -14 0 -19 -2 -12 -5z"/>
<path d="M5572 2761 c-11 -7 -11 -9 0 -14 9 -3 15 1 15 9 0 8 -1 14 -1 14 -1
0 -7 -4 -14 -9z"/>
<path d="M745 2750 c-3 -6 1 -7 9 -4 18 7 21 14 7 14 -6 0 -13 -4 -16 -10z"/>
<path d="M5162 2732 c2 -4 16 -42 32 -85 16 -43 31 -76 33 -73 5 5 -56 166
-64 166 -2 0 -3 -4 -1 -8z"/>
<path d="M679 2693 c-13 -16 -12 -17 4 -4 9 7 17 15 17 17 0 8 -8 3 -21 -13z"/>
<path d="M1136 2695 c-9 -26 -7 -32 5 -12 6 10 9 21 6 23 -2 3 -7 -2 -11 -11z"/>
<path d="M1636 2658 c15 -29 43 -82 64 -118 21 -36 79 -137 129 -225 51 -88
101 -171 113 -185 l20 -25 -20 35 c-11 19 -57 98 -102 175 -45 77 -113 197
-152 268 -72 129 -100 170 -52 75z"/>
<path d="M4629 2588 c-34 -62 -64 -116 -66 -120 -2 -5 -2 -8 0 -8 3 0 30 44
60 98 68 122 79 142 73 142 -2 0 -32 -51 -67 -112z"/>
<path d="M2792 2623 c-37 -64 -260 -455 -304 -533 -11 -20 -13 -28 -5 -20 13
13 240 404 330 568 42 76 25 64 -21 -15z"/>
<path d="M3461 2670 c6 -14 45 -82 85 -152 41 -70 77 -133 80 -141 4 -11 -24
-31 -100 -72 -58 -31 -106 -59 -106 -61 0 -5 73 31 157 79 l62 35 71 -123 c39
-67 78 -131 86 -141 18 -22 -28 65 -98 185 -27 46 -48 84 -46 86 2 1 29 16 61
34 31 18 57 35 57 37 0 3 -28 -11 -63 -30 l-63 -35 -79 139 c-44 77 -88 150
-98 162 l-18 23 12 -25z"/>
<path d="M2156 2666 c3 -8 12 -12 21 -9 12 5 12 7 1 14 -20 13 -28 11 -22 -5z"/>
<path d="M614 2638 l-29 -33 33 29 c17 17 32 31 32 33 0 8 -8 1 -36 -29z"/>
<path d="M5680 2666 c0 -2 8 -10 18 -17 15 -13 16 -12 3 4 -13 16 -21 21 -21
13z"/>
<path d="M1116 2645 c-9 -26 -7 -32 5 -12 6 10 9 21 6 23 -2 3 -7 -2 -11 -11z"/>
<path d="M4120 2650 c0 -5 4 -10 9 -10 6 0 13 5 16 10 3 6 -1 10 -9 10 -9 0
-16 -4 -16 -10z"/>
<path d="M529 2563 l-34 -38 38 34 c20 19 37 36 37 38 0 8 -8 0 -41 -34z"/>
<path d="M4004 2574 c-18 -14 -18 -15 4 -4 12 6 22 13 22 15 0 8 -5 6 -26 -11z"/>
<path d="M5796 2553 c-6 -14 -5 -15 5 -6 7 7 10 15 7 18 -3 3 -9 -2 -12 -12z"/>
<path d="M5230 2555 c0 -5 5 -17 10 -25 5 -8 10 -10 10 -5 0 6 -5 17 -10 25
-5 8 -10 11 -10 5z"/>
<path d="M1066 2515 c-3 -9 -6 -22 -5 -28 0 -7 5 -1 10 12 5 13 8 26 5 28 -2
2 -6 -3 -10 -12z"/>
<path d="M5254 2495 c3 -21 16 -31 16 -12 0 9 -4 18 -9 21 -5 4 -8 -1 -7 -9z"/>
<path d="M2440 2496 c0 -3 9 -10 20 -16 11 -6 20 -8 20 -6 0 3 -9 10 -20 16
-11 6 -20 8 -20 6z"/>
<path d="M3834 2474 c-18 -14 -18 -15 4 -4 12 6 22 13 22 15 0 8 -5 6 -26 -11z"/>
<path d="M1046 2455 c-9 -26 -7 -32 5 -12 6 10 9 21 6 23 -2 3 -7 -2 -11 -11z"/>
<path d="M5742 2435 c-17 -37 -14 -45 4 -12 9 16 14 31 11 33 -2 2 -9 -7 -15
-21z"/>
<path d="M4542 2438 c-7 -7 -12 -15 -12 -19 0 -4 -34 -65 -76 -136 -91 -153
-96 -163 -90 -163 3 0 38 55 77 123 39 67 79 133 88 147 17 24 33 60 28 60 -2
0 -8 -5 -15 -12z"/>
<path d="M135 2398 c4 -27 2 -39 -11 -46 -14 -8 -14 -13 -3 -33 7 -13 16 -40
20 -59 9 -43 27 -96 45 -133 8 -16 14 -37 14 -47 0 -9 6 -23 14 -29 8 -6 20
-25 27 -42 10 -26 14 -28 21 -15 5 9 6 21 3 26 -3 6 -1 10 4 10 6 0 11 -3 11
-7 0 -5 16 -26 35 -48 l36 -40 -41 65 c-46 72 -59 112 -41 118 8 3 5 12 -10
28 -29 31 -29 81 2 131 l22 38 -24 -22 c-41 -37 -69 -26 -69 28 0 10 -6 19
-13 19 -8 0 -21 21 -30 48 -16 44 -16 44 -12 10z"/>
<path d="M5286 2410 c4 -14 13 -38 20 -55 11 -24 13 -25 8 -5 -4 14 -13 39
-20 55 -11 24 -13 25 -8 5z"/>
<path d="M6215 2373 c-14 -47 -19 -54 -26 -38 -6 17 -8 16 -8 -8 -1 -36 -18
-67 -36 -67 -7 0 -28 12 -46 27 l-32 28 26 -40 c36 -56 42 -87 23 -124 -9 -17
-21 -31 -26 -31 -6 0 -10 -5 -10 -11 0 -5 4 -8 9 -4 32 19 13 -37 -45 -132
-12 -21 -7 -17 20 12 31 33 37 36 33 17 -3 -12 -1 -20 4 -16 5 3 9 -3 9 -13 1
-10 7 -3 16 17 8 19 22 38 30 43 7 4 14 19 14 33 0 13 7 27 15 30 8 4 15 18
15 33 0 14 9 44 19 66 10 22 16 45 14 52 -2 6 3 28 11 48 19 45 19 48 4 39 -8
-5 -9 -2 -5 10 4 11 3 15 -4 10 -8 -5 -9 6 -4 35 10 58 2 51 -20 -16z"/>
<path d="M785 2365 c3 -22 10 -80 15 -128 18 -147 0 -161 -74 -62 -11 14 -9 4
5 -34 11 -30 16 -58 12 -62 -13 -13 -66 19 -140 86 l-68 60 79 -90 c110 -126
130 -175 74 -175 -23 -1 -23 -1 -3 -16 74 -54 73 -71 -2 -142 l-58 -53 55 25
c30 14 67 26 82 26 35 0 58 -33 58 -85 l1 -40 15 28 c8 15 19 27 24 27 17 0
44 -52 82 -159 40 -114 46 -121 23 -26 -17 68 -19 141 -6 149 5 4 28 -15 51
-41 l41 -48 -22 46 c-24 52 -21 80 9 72 11 -2 62 -36 113 -75 52 -38 101 -75
109 -81 8 -6 -26 28 -75 75 -112 106 -153 161 -135 183 7 8 27 15 44 16 l31 0
-42 19 c-96 43 -72 102 85 205 23 15 42 29 42 31 0 2 -34 -13 -76 -33 -42 -20
-98 -38 -124 -41 -42 -4 -50 -2 -60 18 -8 14 -10 40 -6 69 l6 46 -20 -33 c-42
-68 -72 -25 -120 167 -16 64 -27 98 -25 76z"/>
<path d="M5536 2337 c-11 -70 -33 -152 -57 -208 -25 -58 -51 -64 -74 -19 -9
17 -17 30 -20 30 -2 0 -1 -24 2 -52 4 -45 2 -56 -15 -72 -19 -16 -26 -17 -70
-6 -27 6 -80 27 -118 46 -37 19 -70 34 -73 34 -3 0 20 -18 53 -39 71 -48 133
-105 141 -132 9 -26 -10 -48 -62 -71 -49 -22 -55 -30 -15 -22 16 3 35 -1 46
-9 19 -14 19 -15 -3 -50 -12 -20 -66 -78 -119 -129 -53 -51 -90 -88 -82 -82
124 93 216 154 231 154 23 0 25 -33 4 -70 -25 -44 -16 -45 21 -2 19 23 39 42
44 42 22 0 21 -60 -6 -200 -2 -14 11 18 29 70 57 161 77 186 111 138 16 -22
16 -22 16 15 0 60 14 77 63 77 23 0 62 -10 87 -21 l45 -20 -58 52 c-68 61 -73
89 -20 125 l33 22 -25 6 c-48 12 -28 56 79 174 36 40 66 75 66 78 0 4 -27 -19
-61 -50 -67 -62 -117 -92 -130 -79 -8 8 -2 41 17 87 4 11 -8 2 -28 -19 -20
-22 -40 -35 -46 -31 -15 9 -15 69 -1 174 6 45 9 87 7 94 -3 7 -8 -9 -12 -35z"/>
<path d="M2710 2336 c0 -3 9 -10 20 -16 11 -6 20 -8 20 -6 0 3 -9 10 -20 16
-11 6 -20 8 -20 6z"/>
<path d="M5326 2300 c3 -14 11 -32 16 -40 6 -10 7 -7 2 10 -3 14 -11 32 -16
40 -6 10 -7 7 -2 -10z"/>
<path d="M2188 2130 c4 -155 2 -183 -12 -205 -9 -14 -24 -25 -33 -25 -9 0 -41
25 -71 56 -30 31 -52 52 -50 47 60 -121 62 -149 11 -147 -39 2 -138 47 -240
109 -40 25 -73 43 -73 41 0 -2 35 -30 78 -61 108 -81 181 -143 199 -171 22
-34 4 -52 -60 -60 l-51 -7 49 -14 c128 -37 110 -87 -65 -182 -41 -22 -72 -41
-69 -41 3 0 38 11 78 25 40 13 99 29 131 36 52 10 63 9 85 -5 29 -19 32 -50
10 -103 l-15 -35 40 41 c22 22 49 41 59 41 39 0 78 -90 113 -260 l14 -65 -4
125 c-3 136 6 172 45 178 15 2 37 -11 67 -38 l45 -42 -22 51 c-19 46 -20 53
-6 67 22 21 81 6 248 -67 74 -33 137 -59 140 -59 3 0 -28 19 -69 41 -106 58
-206 126 -230 156 -39 49 -15 69 85 73 l50 2 -67 17 c-158 41 -134 85 127 230
60 34 107 61 104 61 -4 0 -35 -13 -70 -29 -177 -80 -328 -115 -349 -81 -14 22
-12 66 5 107 8 19 15 37 15 39 0 2 -19 -17 -41 -41 -45 -49 -75 -57 -103 -26
-27 29 -62 153 -81 281 -9 63 -18 116 -19 117 -1 1 0 -78 2 -177z"/>
<path d="M2760 2306 c0 -3 9 -10 20 -16 11 -6 20 -8 20 -6 0 3 -9 10 -20 16
-11 6 -20 8 -20 6z"/>
<path d="M4101 2218 c-17 -133 -49 -262 -75 -300 -34 -51 -60 -48 -117 12
l-49 52 20 -43 c22 -50 26 -99 8 -117 -7 -7 -30 -12 -52 -12 -41 0 -222 57
-289 92 -22 11 -41 17 -43 15 -3 -2 43 -30 101 -62 118 -65 195 -127 195 -156
0 -23 -68 -58 -113 -59 -16 0 -26 -4 -22 -10 3 -5 25 -10 49 -10 23 0 51 -6
61 -14 16 -12 17 -18 8 -39 -14 -29 -164 -132 -275 -188 -43 -22 -78 -41 -78
-44 0 -2 35 12 78 32 152 69 274 114 315 116 39 2 42 0 45 -25 2 -15 -4 -40
-12 -57 -22 -43 -21 -42 26 1 86 79 123 32 116 -150 -3 -56 -3 -101 -1 -99 1
2 10 41 19 87 26 141 64 220 106 220 10 0 35 -18 57 -40 l38 -40 -15 43 c-20
57 -11 93 27 102 32 7 121 -12 230 -49 83 -29 109 -28 35 0 -68 26 -191 109
-199 134 -4 12 -1 27 6 36 15 18 74 44 100 44 10 0 20 4 23 8 3 5 -17 9 -45 9
-46 1 -79 15 -79 34 0 21 83 97 197 181 68 49 123 91 123 93 0 2 -42 -22 -92
-53 -161 -96 -264 -136 -286 -109 -13 16 2 71 33 124 13 22 10 20 -17 -10 -37
-41 -86 -77 -106 -77 -7 0 -20 17 -29 38 -13 31 -15 66 -10 210 3 94 4 172 2
172 -1 0 -8 -42 -14 -92z"/>
<path d="M2850 2256 c0 -3 9 -10 20 -16 11 -6 20 -8 20 -6 0 3 -9 10 -20 16
-11 6 -20 8 -20 6z"/>
<path d="M3358 2214 c-27 -13 -48 -27 -48 -29 0 -3 23 6 50 20 28 14 50 28 50
30 0 7 1 7 -52 -21z"/>
<path d="M1410 2220 c0 -5 5 -10 10 -10 6 0 10 5 10 10 0 6 -4 10 -10 10 -5 0
-10 -4 -10 -10z"/>
<path d="M4890 2209 c0 -5 5 -7 10 -4 6 3 10 8 10 11 0 2 -4 4 -10 4 -5 0 -10
-5 -10 -11z"/>
<path d="M2960 2196 c0 -3 14 -12 30 -21 17 -9 30 -13 30 -11 0 3 -13 12 -30
21 -16 9 -30 13 -30 11z"/>
<path d="M3135 2100 c-3 -5 1 -10 10 -10 9 0 13 5 10 10 -3 6 -8 10 -10 10 -2
0 -7 -4 -10 -10z"/>
<path d="M450 2030 c19 -11 40 -19 45 -19 6 0 -6 8 -25 19 -19 11 -39 19 -45
19 -5 0 6 -8 25 -19z"/>
<path d="M5910 2030 c-19 -11 -30 -19 -25 -19 6 0 26 8 45 19 19 11 31 19 25
19 -5 0 -26 -8 -45 -19z"/>
<path d="M530 1995 c14 -8 30 -14 35 -14 6 0 -1 6 -15 14 -14 8 -29 14 -35 14
-5 0 1 -6 15 -14z"/>
<path d="M5815 1989 c-22 -10 -29 -16 -15 -13 28 7 80 33 65 33 -5 0 -28 -9
-50 -20z"/>
<path d="M451 1838 c-1 -50 -7 -57 -30 -35 -11 10 -13 9 -8 -5 10 -27 -9 -21
-33 10 -17 21 -16 18 4 -19 28 -50 33 -74 14 -63 -7 4 -3 -4 10 -18 24 -27 29
-62 10 -75 -9 -5 -3 -9 17 -13 22 -4 34 -15 46 -39 10 -22 18 -29 21 -20 3 8
18 -10 37 -46 18 -33 30 -52 26 -42 -3 11 -8 31 -12 45 -6 24 -4 25 10 14 13
-11 15 -10 10 7 -7 27 10 27 50 -1 31 -21 31 -20 -5 18 -43 46 -48 64 -15 64
19 0 18 2 -10 20 -18 11 -33 23 -33 28 0 12 22 37 50 57 l25 17 -25 -7 c-14
-4 -38 -8 -55 -9 -27 -1 -30 2 -33 32 -3 31 -5 32 -16 16 -13 -17 -14 -16 -25
5 -7 12 -16 41 -21 64 l-8 42 -1 -47z"/>
<path d="M5928 1815 c-4 -22 -14 -49 -23 -60 -13 -17 -16 -18 -25 -5 -8 12
-10 10 -10 -11 0 -42 -20 -52 -71 -34 l-44 16 38 -35 c39 -36 41 -60 6 -71
-10 -4 -19 -11 -19 -16 0 -6 4 -8 9 -4 5 3 12 1 16 -5 3 -5 -13 -31 -37 -57
-27 -29 -33 -41 -18 -30 60 41 63 42 57 11 -5 -27 -4 -27 9 -9 13 17 14 17 14
1 0 -9 -7 -31 -16 -49 -25 -49 -3 -23 26 31 14 26 29 45 34 44 5 -2 17 11 25
30 10 20 25 34 39 36 24 4 26 9 12 32 -6 10 -1 24 17 49 15 19 21 31 15 27
-18 -11 -14 13 7 42 10 15 24 38 31 52 10 20 5 18 -20 -10 -20 -23 -29 -28
-25 -16 6 19 5 19 -14 2 -19 -18 -20 -17 -23 30 l-3 49 -7 -40z"/>
<path d="M1288 1803 c6 -2 18 -2 25 0 6 3 1 5 -13 5 -14 0 -19 -2 -12 -5z"/>
<path d="M1338 1793 c6 -2 18 -2 25 0 6 3 1 5 -13 5 -14 0 -19 -2 -12 -5z"/>
<path d="M5018 1793 c6 -2 18 -2 25 0 6 3 1 5 -13 5 -14 0 -19 -2 -12 -5z"/>
<path d="M1398 1783 c6 -2 18 -2 25 0 6 3 1 5 -13 5 -14 0 -19 -2 -12 -5z"/>
<path d="M4963 1783 c9 -2 23 -2 30 0 6 3 -1 5 -18 5 -16 0 -22 -2 -12 -5z"/>
<path d="M1450 1776 c0 -2 9 -6 20 -9 11 -3 20 -1 20 4 0 5 -9 9 -20 9 -11 0
-20 -2 -20 -4z"/>
<path d="M4908 1773 c6 -2 18 -2 25 0 6 3 1 5 -13 5 -14 0 -19 -2 -12 -5z"/>
<path d="M1508 1763 c6 -2 18 -2 25 0 6 3 1 5 -13 5 -14 0 -19 -2 -12 -5z"/>
<path d="M4830 1761 c0 -4 11 -6 25 -3 14 2 25 6 25 8 0 2 -11 4 -25 4 -14 0
-25 -4 -25 -9z"/>
<path d="M1568 1753 c6 -2 18 -2 25 0 6 3 1 5 -13 5 -14 0 -19 -2 -12 -5z"/>
<path d="M4798 1753 c7 -3 16 -2 19 1 4 3 -2 6 -13 5 -11 0 -14 -3 -6 -6z"/>
<path d="M1623 1743 c9 -2 23 -2 30 0 6 3 -1 5 -18 5 -16 0 -22 -2 -12 -5z"/>
<path d="M4733 1743 c9 -2 23 -2 30 0 6 3 -1 5 -18 5 -16 0 -22 -2 -12 -5z"/>
<path d="M1688 1733 c6 -2 18 -2 25 0 6 3 1 5 -13 5 -14 0 -19 -2 -12 -5z"/>
<path d="M4673 1733 c9 -2 23 -2 30 0 6 3 -1 5 -18 5 -16 0 -22 -2 -12 -5z"/>
<path d="M4608 1723 c7 -3 16 -2 19 1 4 3 -2 6 -13 5 -11 0 -14 -3 -6 -6z"/>
<path d="M2822 1625 c7 -7 679 -7 686 0 3 3 -151 5 -343 5 -192 0 -346 -2
-343 -5z"/>
<path d="M791 1554 c0 -11 3 -14 6 -6 3 7 2 16 -1 19 -3 4 -6 -2 -5 -13z"/>
<path d="M5159 1413 c-13 -16 -12 -17 4 -4 16 13 21 21 13 21 -2 0 -10 -8 -17
-17z"/>
<path d="M650 1398 c0 -3 9 -27 20 -53 11 -26 20 -49 20 -52 0 -4 -9 2 -20 12
-11 10 -20 15 -20 10 0 -4 -7 -2 -15 5 -25 21 -17 3 16 -34 17 -20 28 -39 25
-44 -3 -5 6 -20 19 -32 14 -13 25 -27 25 -32 0 -5 13 -20 28 -33 15 -13 34
-35 41 -49 8 -14 19 -26 25 -26 6 0 24 -18 39 -39 28 -38 60 -52 50 -22 -4 10
4 7 23 -10 58 -50 68 -52 22 -3 -51 53 -59 67 -30 57 9 -4 0 8 -20 26 -21 18
-38 39 -38 46 0 7 17 20 38 28 l37 16 -51 0 c-58 1 -98 25 -108 65 -4 16 -11
23 -19 20 -17 -6 -30 10 -73 88 -18 35 -34 60 -34 56z"/>
<path d="M5120 1360 c-12 -16 -19 -30 -16 -30 2 0 14 14 26 30 12 17 19 30 16
30 -2 0 -14 -13 -26 -30z"/>
<path d="M1540 1370 c-13 -8 -12 -10 3 -10 9 0 17 5 17 10 0 12 -1 12 -20 0z"/>
<path d="M4760 1360 c0 -6 7 -10 15 -10 8 0 15 2 15 4 0 2 -7 6 -15 10 -8 3
-15 1 -15 -4z"/>
<path d="M5675 1333 c-38 -71 -76 -117 -85 -102 -6 9 -11 5 -15 -14 -11 -43
-50 -67 -109 -68 l-51 -1 32 -14 c49 -21 50 -34 8 -72 -21 -20 -31 -33 -22
-29 28 11 19 -5 -35 -62 -53 -55 -42 -53 21 3 25 23 32 26 27 12 -6 -17 -5
-17 11 -5 15 12 16 12 10 -3 -10 -28 -3 -22 32 27 18 25 36 43 41 40 5 -3 18
10 29 29 12 19 33 41 46 50 14 9 25 22 25 29 0 8 11 24 25 37 13 12 22 26 20
31 -3 4 5 20 18 36 12 15 29 37 37 48 15 20 14 20 -8 1 -12 -11 -22 -15 -22
-11 0 4 -9 0 -20 -10 -29 -26 -32 -16 -9 34 24 54 20 63 -6 14z"/>
<path d="M2017 1263 c-42 -70 -69 -123 -63 -123 2 0 21 30 42 68 20 37 44 77
52 90 8 12 12 22 9 22 -3 0 -21 -26 -40 -57z"/>
<path d="M5079 1303 c-13 -16 -12 -17 4 -4 9 7 17 15 17 17 0 8 -8 3 -21 -13z"/>
<path d="M4268 1285 c30 -58 185 -321 194 -330 6 -5 2 6 -9 25 -11 19 -55 96
-98 170 -42 74 -81 140 -87 145 -7 7 -7 4 0 -10z"/>
<path d="M1270 1276 c0 -2 7 -9 15 -16 13 -11 14 -10 9 4 -5 14 -24 23 -24 12z"/>
<path d="M2584 1213 c25 -32 64 -78 87 -103 22 -25 4 1 -41 58 -44 56 -83 102
-86 102 -3 0 15 -26 40 -57z"/>
<path d="M3601 1073 c-137 -167 -167 -212 -53 -80 19 22 37 35 44 31 7 -4 8
-3 4 5 -5 7 25 52 75 114 100 124 103 127 97 127 -3 0 -78 -89 -167 -197z"/>
<path d="M3145 1210 c3 -5 8 -10 11 -10 2 0 4 5 4 10 0 6 -5 10 -11 10 -5 0
-7 -4 -4 -10z"/>
<path d="M1923 1103 c-6 -16 -27 -56 -47 -90 -20 -35 -34 -63 -31 -63 2 0 16
21 31 48 15 26 37 64 50 84 26 40 28 48 16 48 -4 0 -13 -12 -19 -27z"/>
<path d="M4694 1074 c-13 -55 -57 -159 -81 -191 -28 -39 -57 -42 -89 -12 l-23
22 6 -37 c9 -54 -7 -66 -86 -66 -36 0 -93 7 -126 15 -88 21 -89 17 -4 -14 142
-51 156 -75 66 -110 l-52 -20 49 0 49 -1 -19 -21 c-10 -12 -54 -42 -96 -67
-43 -24 -78 -46 -78 -48 0 -1 41 15 91 37 85 37 139 49 139 31 0 -4 -8 -18
-17 -32 -17 -24 -16 -23 18 3 20 15 44 27 54 27 15 0 17 -6 12 -42 -2 -24 -8
-52 -12 -63 -4 -11 12 11 36 50 51 81 82 102 116 79 22 -14 23 -13 23 15 0 41
27 53 117 55 78 1 95 10 37 19 -37 6 -64 22 -64 39 0 5 19 18 43 28 39 18 40
20 14 20 -48 0 -29 30 66 101 100 75 135 107 67 62 -51 -35 -164 -93 -180 -93
-16 0 -12 25 11 54 27 35 15 33 -28 -4 -18 -16 -43 -30 -53 -30 -17 0 -20 7
-20 43 1 23 7 71 15 107 13 63 13 101 -1 44z"/>
<path d="M1625 1060 c4 -19 10 -59 15 -88 16 -91 -5 -105 -70 -46 -43 39 -52
38 -20 -3 24 -31 25 -43 5 -43 -20 0 -108 44 -162 82 -69 47 -49 23 30 -35
124 -94 141 -117 85 -117 l-33 0 41 -19 c23 -10 44 -23 48 -29 9 -15 -18 -32
-71 -47 l-48 -13 80 -1 c95 -1 129 -15 133 -54 3 -23 6 -26 18 -17 8 7 25 9
39 6 24 -6 34 -20 112 -142 6 -11 4 4 -4 32 -16 50 -13 84 6 84 5 0 23 -11 39
-25 38 -32 47 -32 27 -1 -10 15 -12 27 -6 30 11 7 113 -29 179 -63 73 -37 59
-22 -28 29 -96 58 -122 79 -114 92 3 5 25 7 48 4 l41 -6 -30 15 c-16 8 -35 14
-41 15 -6 0 -18 8 -28 18 -15 18 -15 20 2 36 11 9 54 29 98 46 88 32 88 36 -1
15 -76 -19 -166 -19 -190 -1 -14 10 -17 21 -12 51 l6 38 -23 -22 c-51 -48 -93
-9 -148 137 -16 42 -26 61 -23 42z"/>
<path d="M2730 1035 c13 -14 26 -25 28 -25 3 0 -5 11 -18 25 -13 14 -26 25
-28 25 -3 0 5 -11 18 -25z"/>
<path d="M2799 951 c22 -26 48 -54 58 -62 10 -8 -6 14 -36 49 -29 34 -55 62
-58 62 -3 0 13 -22 36 -49z"/>
<path d="M3147 885 c-13 -130 -34 -185 -72 -185 -7 0 -36 15 -63 34 l-50 33
19 -31 c10 -17 19 -40 19 -50 0 -17 -6 -18 -65 -13 -35 3 -104 19 -152 36 -49
16 -89 28 -91 26 -1 -1 41 -22 95 -45 114 -50 143 -67 143 -85 0 -16 -22 -25
-68 -26 l-37 -1 35 -10 c19 -5 46 -14 59 -19 22 -9 23 -12 9 -25 -9 -9 -55
-31 -104 -50 -49 -18 -87 -33 -84 -34 3 0 48 9 100 20 157 33 194 26 165 -29
l-16 -33 28 20 c48 34 70 36 97 9 17 -17 27 -42 32 -76 7 -53 24 -61 24 -10 0
16 7 45 14 64 13 30 20 35 47 35 17 0 48 -10 68 -22 34 -20 35 -21 19 -2 -25
28 -22 53 5 59 13 4 70 -3 126 -15 108 -22 141 -22 69 0 -64 19 -138 59 -138
74 0 15 29 25 75 27 25 1 23 3 -18 14 -27 7 -51 16 -54 19 -15 15 39 49 143
92 62 26 112 49 111 50 -2 2 -45 -11 -97 -28 -52 -16 -125 -33 -162 -36 -62
-4 -68 -3 -68 14 0 11 9 33 19 50 l19 31 -50 -33 c-27 -19 -56 -34 -63 -34
-38 0 -63 65 -74 190 l-7 75 -7 -80z"/>
<path d="M2351 894 c0 -11 3 -14 6 -6 3 7 2 16 -1 19 -3 4 -6 -2 -5 -13z"/>
<path d="M1620 560 c-6 -11 -8 -20 -6 -20 3 0 10 9 16 20 6 11 8 20 6 20 -3 0
-10 -9 -16 -20z"/>
<path d="M2904 328 l-19 -23 23 19 c12 11 22 21 22 23 0 8 -8 2 -26 -19z"/>
<path d="M3420 315 c13 -14 26 -25 28 -25 3 0 -5 11 -18 25 -13 14 -26 25 -28
25 -3 0 5 -11 18 -25z"/>
<path d="M2854 288 l-19 -23 23 19 c12 11 22 21 22 23 0 8 -8 2 -26 -19z"/>
<path d="M3470 276 c0 -2 8 -10 18 -17 15 -13 16 -12 3 4 -13 16 -21 21 -21
13z"/>
<path d="M2799 243 c-13 -16 -12 -17 4 -4 16 13 21 21 13 21 -2 0 -10 -8 -17
-17z"/>
<path d="M3510 246 c0 -2 8 -10 18 -17 15 -13 16 -12 3 4 -13 16 -21 21 -21
13z"/>
<path d="M2506 208 c8 -48 -11 -57 -67 -35 -37 15 -40 15 -27 0 12 -15 10 -16
-16 -9 -15 4 -42 9 -60 12 -24 3 -22 1 14 -13 25 -9 39 -18 32 -21 -22 -7 7
-32 37 -32 14 0 39 -7 55 -15 15 -8 39 -15 51 -15 13 0 36 -5 52 -11 15 -6 69
-12 118 -14 50 -1 84 0 77 2 -6 3 -10 9 -6 14 3 5 -2 9 -10 9 -9 0 -16 4 -16
9 0 5 26 13 58 18 56 10 56 10 -35 9 -97 0 -113 5 -94 27 9 12 5 13 -28 4 -51
-14 -83 2 -117 58 l-25 40 7 -37z"/>
<path d="M3168 225 c-3 -11 -9 -32 -12 -47 -7 -32 -30 -36 -65 -12 -22 16 -23
16 -12 -4 6 -11 7 -23 2 -26 -7 -5 -71 9 -126 28 -11 4 4 -6 33 -21 56 -29 65
-42 30 -44 -17 -1 -19 -2 -5 -6 26 -7 20 -21 -10 -26 -17 -2 -10 -5 20 -6 26
0 47 -6 47 -12 0 -6 12 -10 28 -9 44 3 50 1 58 -22 l6 -21 18 23 c13 18 24 22
53 18 21 -2 35 0 34 7 -1 6 21 9 58 8 l60 -2 -40 13 c-22 8 -34 14 -27 15 18
2 15 19 -5 23 -13 3 -3 12 32 31 58 30 57 32 -9 12 -67 -20 -79 -19 -73 5 5
21 -7 28 -18 10 -9 -14 -42 -13 -51 2 -4 7 -11 28 -14 48 -5 27 -7 31 -12 15z"/>
<path d="M3805 206 c-31 -64 -73 -83 -135 -62 -21 8 -23 7 -13 -6 20 -23 6
-28 -86 -29 -72 -1 -78 -3 -39 -8 43 -6 78 -21 50 -21 -7 0 -12 -7 -12 -15 0
-10 11 -16 33 -17 34 -1 39 -1 102 7 22 3 63 8 90 11 28 4 59 13 70 20 11 8
35 14 55 14 26 0 31 3 20 10 -12 8 -12 10 5 10 15 0 17 2 6 9 -9 6 -1 13 30
25 24 9 33 14 19 12 -102 -18 -106 -18 -86 -2 25 20 16 20 -28 0 -50 -25 -70
-13 -63 36 3 22 3 40 2 40 -2 0 -11 -15 -20 -34z"/>
</g>
</svg>
